G04 EAGLE Gerber RS-274X export*
G75*
%MOMM*%
%FSLAX34Y34*%
%LPD*%
%INSoldermask Top*%
%IPPOS*%
%AMOC8*
5,1,8,0,0,1.08239X$1,22.5*%
G01*
%ADD10R,1.401600X1.601600*%
%ADD11R,1.601600X1.401600*%
%ADD12R,2.133600X0.762000*%
%ADD13P,1.759533X8X22.500000*%
%ADD14P,1.759533X8X292.500000*%
%ADD15R,2.032000X5.435600*%
%ADD16R,0.648700X1.701400*%
%ADD17R,1.701400X0.648700*%
%ADD18R,2.209800X1.498600*%
%ADD19P,1.869504X8X112.500000*%
%ADD20P,1.564054X8X202.500000*%
%ADD21P,2.048207X8X202.500000*%
%ADD22R,1.371600X2.641600*%
%ADD23R,2.101600X2.101600*%
%ADD24R,1.270000X1.701800*%
%ADD25R,0.152400X1.828800*%
%ADD26R,2.601600X3.601600*%
%ADD27R,1.701600X3.301600*%
%ADD28R,10.901600X10.511600*%
%ADD29R,1.168400X2.260600*%
%ADD30P,1.759533X8X112.500000*%
%ADD31R,1.371600X0.736600*%
%ADD32P,2.144431X8X22.500000*%
%ADD33R,1.101600X1.601600*%
%ADD34R,0.710800X1.281700*%
%ADD35C,0.365600*%
%ADD36R,1.701600X1.701600*%
%ADD37R,0.501600X1.601600*%
%ADD38R,0.501600X1.651600*%
%ADD39R,1.851600X2.501600*%
%ADD40C,3.101600*%
%ADD41R,1.701800X1.270000*%
%ADD42R,0.501600X1.525600*%

G36*
X973342Y954720D02*
X973342Y954720D01*
X973385Y954732D01*
X973451Y954739D01*
X975134Y955190D01*
X975175Y955209D01*
X975238Y955228D01*
X976818Y955965D01*
X976855Y955991D01*
X976914Y956020D01*
X978342Y957020D01*
X978373Y957052D01*
X978426Y957091D01*
X979659Y958324D01*
X979684Y958360D01*
X979730Y958408D01*
X980730Y959836D01*
X980748Y959877D01*
X980785Y959932D01*
X981522Y961512D01*
X981533Y961555D01*
X981560Y961616D01*
X982011Y963299D01*
X982013Y963331D01*
X982020Y963352D01*
X982020Y963367D01*
X982030Y963408D01*
X982182Y965145D01*
X982178Y965189D01*
X982182Y965255D01*
X982030Y966992D01*
X982018Y967035D01*
X982011Y967101D01*
X981560Y968784D01*
X981541Y968825D01*
X981522Y968888D01*
X980785Y970468D01*
X980759Y970505D01*
X980730Y970564D01*
X979730Y971992D01*
X979698Y972023D01*
X979659Y972076D01*
X978426Y973309D01*
X978390Y973334D01*
X978342Y973380D01*
X976914Y974380D01*
X976873Y974398D01*
X976818Y974435D01*
X975238Y975172D01*
X975195Y975183D01*
X975134Y975210D01*
X973451Y975661D01*
X973406Y975664D01*
X973342Y975680D01*
X971605Y975832D01*
X971561Y975828D01*
X971495Y975832D01*
X969758Y975680D01*
X969715Y975668D01*
X969649Y975661D01*
X967966Y975210D01*
X967925Y975191D01*
X967862Y975172D01*
X966282Y974435D01*
X966245Y974409D01*
X966186Y974380D01*
X964758Y973380D01*
X964727Y973348D01*
X964674Y973309D01*
X963441Y972076D01*
X963416Y972040D01*
X963370Y971992D01*
X962370Y970564D01*
X962352Y970523D01*
X962315Y970468D01*
X961578Y968888D01*
X961567Y968845D01*
X961540Y968784D01*
X961089Y967101D01*
X961086Y967056D01*
X961070Y966992D01*
X960918Y965255D01*
X960922Y965211D01*
X960918Y965145D01*
X961070Y963408D01*
X961082Y963365D01*
X961086Y963331D01*
X961086Y963315D01*
X961088Y963310D01*
X961089Y963299D01*
X961540Y961616D01*
X961559Y961575D01*
X961578Y961512D01*
X962315Y959932D01*
X962341Y959895D01*
X962370Y959836D01*
X963370Y958408D01*
X963402Y958377D01*
X963441Y958324D01*
X964674Y957091D01*
X964710Y957066D01*
X964758Y957020D01*
X966186Y956020D01*
X966227Y956002D01*
X966282Y955965D01*
X967862Y955228D01*
X967905Y955217D01*
X967966Y955190D01*
X969649Y954739D01*
X969694Y954736D01*
X969758Y954720D01*
X971495Y954568D01*
X971539Y954572D01*
X971605Y954568D01*
X973342Y954720D01*
G37*
G36*
X27192Y14920D02*
X27192Y14920D01*
X27235Y14932D01*
X27301Y14939D01*
X28984Y15390D01*
X29025Y15409D01*
X29088Y15428D01*
X30668Y16165D01*
X30705Y16191D01*
X30764Y16220D01*
X32192Y17220D01*
X32223Y17252D01*
X32276Y17291D01*
X33509Y18524D01*
X33534Y18560D01*
X33580Y18608D01*
X34580Y20036D01*
X34598Y20077D01*
X34635Y20132D01*
X35372Y21712D01*
X35383Y21755D01*
X35410Y21816D01*
X35861Y23499D01*
X35863Y23531D01*
X35870Y23552D01*
X35870Y23567D01*
X35880Y23608D01*
X36032Y25345D01*
X36028Y25389D01*
X36032Y25455D01*
X35880Y27192D01*
X35868Y27235D01*
X35861Y27301D01*
X35410Y28984D01*
X35391Y29025D01*
X35372Y29088D01*
X34635Y30668D01*
X34609Y30705D01*
X34580Y30764D01*
X33580Y32192D01*
X33548Y32223D01*
X33509Y32276D01*
X32276Y33509D01*
X32240Y33534D01*
X32192Y33580D01*
X30764Y34580D01*
X30723Y34598D01*
X30668Y34635D01*
X29088Y35372D01*
X29045Y35383D01*
X28984Y35410D01*
X27301Y35861D01*
X27256Y35864D01*
X27192Y35880D01*
X25455Y36032D01*
X25411Y36028D01*
X25345Y36032D01*
X23608Y35880D01*
X23565Y35868D01*
X23499Y35861D01*
X21816Y35410D01*
X21775Y35391D01*
X21712Y35372D01*
X20132Y34635D01*
X20095Y34609D01*
X20036Y34580D01*
X18608Y33580D01*
X18577Y33548D01*
X18524Y33509D01*
X17291Y32276D01*
X17266Y32240D01*
X17220Y32192D01*
X16220Y30764D01*
X16202Y30723D01*
X16165Y30668D01*
X15428Y29088D01*
X15417Y29045D01*
X15390Y28984D01*
X14939Y27301D01*
X14936Y27256D01*
X14920Y27192D01*
X14768Y25455D01*
X14772Y25411D01*
X14768Y25345D01*
X14920Y23608D01*
X14932Y23565D01*
X14936Y23531D01*
X14936Y23515D01*
X14938Y23510D01*
X14939Y23499D01*
X15390Y21816D01*
X15409Y21775D01*
X15428Y21712D01*
X16165Y20132D01*
X16191Y20095D01*
X16220Y20036D01*
X17220Y18608D01*
X17252Y18577D01*
X17291Y18524D01*
X18524Y17291D01*
X18560Y17266D01*
X18608Y17220D01*
X20036Y16220D01*
X20077Y16202D01*
X20132Y16165D01*
X21712Y15428D01*
X21755Y15417D01*
X21816Y15390D01*
X23499Y14939D01*
X23544Y14936D01*
X23608Y14920D01*
X25345Y14768D01*
X25389Y14772D01*
X25455Y14768D01*
X27192Y14920D01*
G37*
G36*
X407735Y246392D02*
X407735Y246392D01*
X407801Y246394D01*
X407844Y246412D01*
X407891Y246420D01*
X407948Y246454D01*
X408008Y246479D01*
X408043Y246510D01*
X408084Y246535D01*
X408126Y246586D01*
X408174Y246630D01*
X408196Y246672D01*
X408225Y246709D01*
X408246Y246771D01*
X408277Y246830D01*
X408285Y246884D01*
X408297Y246921D01*
X408296Y246961D01*
X408304Y247015D01*
X408304Y250825D01*
X408293Y250890D01*
X408291Y250956D01*
X408273Y250999D01*
X408265Y251046D01*
X408231Y251103D01*
X408206Y251163D01*
X408175Y251198D01*
X408150Y251239D01*
X408099Y251281D01*
X408055Y251329D01*
X408013Y251351D01*
X407976Y251380D01*
X407914Y251401D01*
X407855Y251432D01*
X407801Y251440D01*
X407764Y251452D01*
X407724Y251451D01*
X407670Y251459D01*
X405130Y251459D01*
X405065Y251448D01*
X404999Y251446D01*
X404956Y251428D01*
X404909Y251420D01*
X404852Y251386D01*
X404792Y251361D01*
X404757Y251330D01*
X404716Y251305D01*
X404675Y251254D01*
X404626Y251210D01*
X404604Y251168D01*
X404575Y251131D01*
X404554Y251069D01*
X404523Y251010D01*
X404515Y250956D01*
X404503Y250919D01*
X404503Y250915D01*
X404503Y250914D01*
X404504Y250879D01*
X404496Y250825D01*
X404496Y247015D01*
X404507Y246950D01*
X404509Y246884D01*
X404527Y246841D01*
X404535Y246794D01*
X404569Y246737D01*
X404594Y246677D01*
X404625Y246642D01*
X404650Y246601D01*
X404701Y246560D01*
X404745Y246511D01*
X404787Y246489D01*
X404824Y246460D01*
X404886Y246439D01*
X404945Y246408D01*
X404999Y246400D01*
X405036Y246388D01*
X405076Y246389D01*
X405130Y246381D01*
X407670Y246381D01*
X407735Y246392D01*
G37*
G36*
X407735Y208292D02*
X407735Y208292D01*
X407801Y208294D01*
X407844Y208312D01*
X407891Y208320D01*
X407948Y208354D01*
X408008Y208379D01*
X408043Y208410D01*
X408084Y208435D01*
X408126Y208486D01*
X408174Y208530D01*
X408196Y208572D01*
X408225Y208609D01*
X408246Y208671D01*
X408277Y208730D01*
X408285Y208784D01*
X408297Y208821D01*
X408296Y208861D01*
X408304Y208915D01*
X408304Y212725D01*
X408293Y212790D01*
X408291Y212856D01*
X408273Y212899D01*
X408265Y212946D01*
X408231Y213003D01*
X408206Y213063D01*
X408175Y213098D01*
X408150Y213139D01*
X408099Y213181D01*
X408055Y213229D01*
X408013Y213251D01*
X407976Y213280D01*
X407914Y213301D01*
X407855Y213332D01*
X407801Y213340D01*
X407764Y213352D01*
X407724Y213351D01*
X407670Y213359D01*
X405130Y213359D01*
X405065Y213348D01*
X404999Y213346D01*
X404956Y213328D01*
X404909Y213320D01*
X404852Y213286D01*
X404792Y213261D01*
X404757Y213230D01*
X404716Y213205D01*
X404675Y213154D01*
X404626Y213110D01*
X404604Y213068D01*
X404575Y213031D01*
X404554Y212969D01*
X404523Y212910D01*
X404515Y212856D01*
X404503Y212819D01*
X404503Y212815D01*
X404503Y212814D01*
X404504Y212779D01*
X404496Y212725D01*
X404496Y208915D01*
X404507Y208850D01*
X404509Y208784D01*
X404527Y208741D01*
X404535Y208694D01*
X404569Y208637D01*
X404594Y208577D01*
X404625Y208542D01*
X404650Y208501D01*
X404701Y208460D01*
X404745Y208411D01*
X404787Y208389D01*
X404824Y208360D01*
X404886Y208339D01*
X404945Y208308D01*
X404999Y208300D01*
X405036Y208288D01*
X405076Y208289D01*
X405130Y208281D01*
X407670Y208281D01*
X407735Y208292D01*
G37*
D10*
X536600Y565150D03*
X555600Y565150D03*
D11*
X685800Y581000D03*
X685800Y562000D03*
D12*
X451866Y584200D03*
X513334Y584200D03*
X451866Y571500D03*
X451866Y558800D03*
X513334Y571500D03*
X513334Y558800D03*
X451866Y546100D03*
X513334Y546100D03*
X451866Y533400D03*
X513334Y533400D03*
X451866Y520700D03*
X451866Y508000D03*
X513334Y520700D03*
X513334Y508000D03*
X451866Y495300D03*
X513334Y495300D03*
X597916Y584200D03*
X659384Y584200D03*
X597916Y571500D03*
X597916Y558800D03*
X659384Y571500D03*
X659384Y558800D03*
X597916Y546100D03*
X659384Y546100D03*
X597916Y533400D03*
X659384Y533400D03*
X597916Y520700D03*
X597916Y508000D03*
X659384Y520700D03*
X659384Y508000D03*
X597916Y495300D03*
X659384Y495300D03*
D13*
X88900Y895350D03*
X88900Y920750D03*
X88900Y946150D03*
X88900Y869950D03*
X88900Y844550D03*
X88900Y819150D03*
X88900Y793750D03*
X88900Y768350D03*
D14*
X114300Y419100D03*
X139700Y419100D03*
X165100Y419100D03*
X88900Y419100D03*
X63500Y419100D03*
X38100Y419100D03*
X114300Y336550D03*
X139700Y336550D03*
X165100Y336550D03*
X88900Y336550D03*
X63500Y336550D03*
X38100Y336550D03*
X317500Y419100D03*
X342900Y419100D03*
X368300Y419100D03*
X292100Y419100D03*
X266700Y419100D03*
X241300Y419100D03*
X317500Y336550D03*
X342900Y336550D03*
X368300Y336550D03*
X292100Y336550D03*
X266700Y336550D03*
X241300Y336550D03*
X825500Y565150D03*
X850900Y565150D03*
X876300Y565150D03*
X800100Y565150D03*
X774700Y565150D03*
X749300Y565150D03*
X723900Y565150D03*
D15*
X609600Y269240D03*
X609600Y365760D03*
D11*
X654050Y301600D03*
X654050Y282600D03*
X654050Y333400D03*
X654050Y352400D03*
D16*
X454600Y320137D03*
X462600Y320137D03*
X470600Y320137D03*
X478600Y320137D03*
X486600Y320137D03*
X494600Y320137D03*
X502600Y320137D03*
X510600Y320137D03*
D17*
X524413Y333950D03*
X524413Y341950D03*
X524413Y349950D03*
X524413Y357950D03*
X524413Y365950D03*
X524413Y373950D03*
X524413Y381950D03*
X524413Y389950D03*
D16*
X510600Y403763D03*
X502600Y403763D03*
X494600Y403763D03*
X486600Y403763D03*
X478600Y403763D03*
X470600Y403763D03*
X462600Y403763D03*
X454600Y403763D03*
D17*
X440787Y389950D03*
X440787Y381950D03*
X440787Y373950D03*
X440787Y365950D03*
X440787Y357950D03*
X440787Y349950D03*
X440787Y341950D03*
X440787Y333950D03*
D11*
X539750Y269850D03*
X539750Y250850D03*
X488950Y250850D03*
X488950Y269850D03*
X514350Y250850D03*
X514350Y269850D03*
X203200Y555600D03*
X203200Y536600D03*
X177800Y555600D03*
X177800Y536600D03*
X152400Y555600D03*
X152400Y536600D03*
X127000Y555600D03*
X127000Y536600D03*
X101600Y555600D03*
X101600Y536600D03*
X76200Y555600D03*
X76200Y536600D03*
X406400Y555600D03*
X406400Y536600D03*
X381000Y555600D03*
X381000Y536600D03*
X355600Y555600D03*
X355600Y536600D03*
X330200Y555600D03*
X330200Y536600D03*
X254000Y555600D03*
X254000Y536600D03*
X228600Y555600D03*
X228600Y536600D03*
X304800Y555600D03*
X304800Y536600D03*
X279400Y555600D03*
X279400Y536600D03*
X82550Y650900D03*
X82550Y669900D03*
X57150Y650900D03*
X57150Y669900D03*
X107950Y650900D03*
X107950Y669900D03*
X133350Y650900D03*
X133350Y669900D03*
X184150Y650900D03*
X184150Y669900D03*
X158750Y650900D03*
X158750Y669900D03*
X209550Y650900D03*
X209550Y669900D03*
X234950Y650900D03*
X234950Y669900D03*
X285750Y650900D03*
X285750Y669900D03*
X260350Y650900D03*
X260350Y669900D03*
X311150Y650900D03*
X311150Y669900D03*
X336550Y650900D03*
X336550Y669900D03*
X387350Y650900D03*
X387350Y669900D03*
X361950Y650900D03*
X361950Y669900D03*
X412750Y650900D03*
X412750Y669900D03*
X438150Y650900D03*
X438150Y669900D03*
X488950Y650900D03*
X488950Y669900D03*
X463550Y650900D03*
X463550Y669900D03*
X514350Y650900D03*
X514350Y669900D03*
X539750Y650900D03*
X539750Y669900D03*
X590550Y650900D03*
X590550Y669900D03*
X565150Y650900D03*
X565150Y669900D03*
X615950Y650900D03*
X615950Y669900D03*
X641350Y650900D03*
X641350Y669900D03*
X692150Y650900D03*
X692150Y669900D03*
X666750Y650900D03*
X666750Y669900D03*
X717550Y650900D03*
X717550Y669900D03*
X742950Y650900D03*
X742950Y669900D03*
X793750Y650900D03*
X793750Y669900D03*
X768350Y650900D03*
X768350Y669900D03*
X819150Y650900D03*
X819150Y669900D03*
X844550Y650900D03*
X844550Y669900D03*
X895350Y650900D03*
X895350Y669900D03*
X869950Y650900D03*
X869950Y669900D03*
X920750Y650900D03*
X920750Y669900D03*
X946150Y650900D03*
X946150Y669900D03*
D18*
X558800Y228600D03*
X467614Y228600D03*
X558800Y183642D03*
X467614Y183642D03*
D19*
X482600Y444500D03*
X482600Y469900D03*
X457200Y469900D03*
X457200Y444500D03*
X508000Y444500D03*
X508000Y469900D03*
D20*
X755650Y311150D03*
X755650Y336550D03*
X755650Y361950D03*
X755650Y387350D03*
X755650Y412750D03*
X755650Y438150D03*
X755650Y463550D03*
X679450Y463550D03*
X679450Y438150D03*
X679450Y412750D03*
X679450Y387350D03*
X679450Y361950D03*
X679450Y336550D03*
X679450Y311150D03*
D10*
X752450Y273050D03*
X733450Y273050D03*
X828700Y514350D03*
X847700Y514350D03*
X790600Y603250D03*
X809600Y603250D03*
X733450Y603250D03*
X752450Y603250D03*
D13*
X190500Y895350D03*
X190500Y920750D03*
X190500Y946150D03*
X190500Y869950D03*
X190500Y844550D03*
X190500Y819150D03*
X190500Y793750D03*
X190500Y768350D03*
X292100Y895350D03*
X292100Y920750D03*
X292100Y946150D03*
X292100Y869950D03*
X292100Y844550D03*
X292100Y819150D03*
X292100Y793750D03*
X292100Y768350D03*
X393700Y895350D03*
X393700Y920750D03*
X393700Y946150D03*
X393700Y869950D03*
X393700Y844550D03*
X393700Y819150D03*
X393700Y793750D03*
X393700Y768350D03*
X495300Y895350D03*
X495300Y920750D03*
X495300Y946150D03*
X495300Y869950D03*
X495300Y844550D03*
X495300Y819150D03*
X495300Y793750D03*
X495300Y768350D03*
X596900Y895350D03*
X596900Y920750D03*
X596900Y946150D03*
X596900Y869950D03*
X596900Y844550D03*
X596900Y819150D03*
X596900Y793750D03*
X596900Y768350D03*
X698500Y895350D03*
X698500Y920750D03*
X698500Y946150D03*
X698500Y869950D03*
X698500Y844550D03*
X698500Y819150D03*
X698500Y793750D03*
X698500Y768350D03*
X800100Y895350D03*
X800100Y920750D03*
X800100Y946150D03*
X800100Y869950D03*
X800100Y844550D03*
X800100Y819150D03*
X800100Y793750D03*
X800100Y768350D03*
X901700Y895350D03*
X901700Y920750D03*
X901700Y946150D03*
X901700Y869950D03*
X901700Y844550D03*
X901700Y819150D03*
X901700Y793750D03*
X901700Y768350D03*
D10*
X612750Y463550D03*
X593750Y463550D03*
X498450Y298450D03*
X479450Y298450D03*
D21*
X952500Y362350D03*
X952500Y412350D03*
X952500Y241700D03*
X952500Y291700D03*
D22*
X57150Y139700D03*
X82550Y139700D03*
X107950Y139700D03*
D23*
X115250Y63500D03*
X75250Y63500D03*
D24*
X299720Y146050D03*
X284480Y146050D03*
D25*
X292100Y146050D03*
D26*
X298450Y183400D03*
X298450Y248400D03*
X82550Y183400D03*
X82550Y248400D03*
D27*
X143650Y63500D03*
X224650Y63500D03*
D28*
X190500Y222250D03*
D29*
X156464Y138938D03*
X173482Y138938D03*
X190500Y138938D03*
X207518Y138938D03*
X224536Y138938D03*
D13*
X260350Y101600D03*
X260350Y76200D03*
X260350Y50800D03*
X946150Y38100D03*
X946150Y63500D03*
X863600Y38100D03*
X863600Y63500D03*
X781050Y38100D03*
X781050Y63500D03*
X698500Y38100D03*
X698500Y63500D03*
X946150Y133350D03*
X946150Y158750D03*
X946150Y184150D03*
X863600Y133350D03*
X863600Y158750D03*
X863600Y184150D03*
X781050Y133350D03*
X781050Y158750D03*
X781050Y184150D03*
X698500Y133350D03*
X698500Y158750D03*
X698500Y184150D03*
D30*
X342900Y22860D03*
X368300Y22860D03*
X393700Y22860D03*
X419100Y22860D03*
X444500Y22860D03*
D24*
X401320Y57150D03*
X386080Y57150D03*
D25*
X393700Y57150D03*
D11*
X548640Y83210D03*
X548640Y102210D03*
X599440Y102210D03*
X599440Y83210D03*
X574040Y102210D03*
X574040Y83210D03*
X523240Y83210D03*
X523240Y102210D03*
X472440Y102210D03*
X472440Y83210D03*
X497840Y83210D03*
X497840Y102210D03*
D31*
X406400Y264160D03*
X406400Y254000D03*
X406400Y243840D03*
X406400Y226060D03*
X406400Y215900D03*
X406400Y205740D03*
D13*
X977900Y711200D03*
X977900Y685800D03*
X977900Y660400D03*
X977900Y635000D03*
D32*
X431800Y273050D03*
X431800Y247650D03*
X431800Y222250D03*
X431800Y196850D03*
X431800Y171450D03*
X431800Y146050D03*
D11*
X571500Y447700D03*
X571500Y466700D03*
D10*
X727050Y419100D03*
X708050Y419100D03*
X727050Y444500D03*
X708050Y444500D03*
X720700Y330200D03*
X701700Y330200D03*
X720700Y304800D03*
X701700Y304800D03*
D33*
X635000Y467725D03*
X635000Y446675D03*
D26*
X819150Y259600D03*
X819150Y324600D03*
X850900Y483350D03*
X850900Y418350D03*
D34*
X66700Y694605D03*
X85700Y694605D03*
X76200Y715095D03*
X168300Y694605D03*
X187300Y694605D03*
X177800Y715095D03*
X269900Y694605D03*
X288900Y694605D03*
X279400Y715095D03*
X574700Y694605D03*
X593700Y694605D03*
X584200Y715095D03*
X473100Y694605D03*
X492100Y694605D03*
X482600Y715095D03*
X371500Y694605D03*
X390500Y694605D03*
X381000Y715095D03*
X676300Y694605D03*
X695300Y694605D03*
X685800Y715095D03*
X777900Y694605D03*
X796900Y694605D03*
X787400Y715095D03*
X879500Y694605D03*
X898500Y694605D03*
X889000Y715095D03*
X352400Y511895D03*
X333400Y511895D03*
X342900Y491405D03*
X403200Y511895D03*
X384200Y511895D03*
X393700Y491405D03*
X98400Y511895D03*
X79400Y511895D03*
X88900Y491405D03*
X149200Y511895D03*
X130200Y511895D03*
X139700Y491405D03*
X200000Y511895D03*
X181000Y511895D03*
X190500Y491405D03*
X250800Y511895D03*
X231800Y511895D03*
X241300Y491405D03*
X301600Y511895D03*
X282600Y511895D03*
X292100Y491405D03*
X206400Y694605D03*
X225400Y694605D03*
X215900Y715095D03*
X308000Y694605D03*
X327000Y694605D03*
X317500Y715095D03*
X409600Y694605D03*
X428600Y694605D03*
X419100Y715095D03*
X511200Y694605D03*
X530200Y694605D03*
X520700Y715095D03*
X612800Y694605D03*
X631800Y694605D03*
X622300Y715095D03*
X714400Y694605D03*
X733400Y694605D03*
X723900Y715095D03*
X816000Y694605D03*
X835000Y694605D03*
X825500Y715095D03*
X917600Y694605D03*
X936600Y694605D03*
X927100Y715095D03*
D35*
X620576Y424300D02*
X614616Y424300D01*
X614616Y429300D02*
X620576Y429300D01*
X620576Y434300D02*
X614616Y434300D01*
X614616Y439300D02*
X620576Y439300D01*
X610750Y443166D02*
X610750Y449126D01*
X605750Y449126D02*
X605750Y443166D01*
X600750Y443166D02*
X600750Y449126D01*
X595750Y449126D02*
X595750Y443166D01*
X591884Y439300D02*
X585924Y439300D01*
X585924Y434300D02*
X591884Y434300D01*
X591884Y429300D02*
X585924Y429300D01*
X585924Y424300D02*
X591884Y424300D01*
X595750Y420434D02*
X595750Y414474D01*
X600750Y414474D02*
X600750Y420434D01*
X605750Y420434D02*
X605750Y414474D01*
X610750Y414474D02*
X610750Y420434D01*
D36*
X603250Y431800D03*
D34*
X104800Y694605D03*
X123800Y694605D03*
X114300Y715095D03*
D37*
X537510Y53340D03*
X511510Y53340D03*
D38*
X518010Y53340D03*
D37*
X524510Y53340D03*
X531010Y53340D03*
D39*
X476810Y15340D03*
X572210Y15340D03*
D40*
X946150Y571500D03*
X330200Y88900D03*
D24*
X835660Y361950D03*
X850900Y361950D03*
X866140Y361950D03*
D41*
X882650Y264160D03*
X882650Y279400D03*
X882650Y294640D03*
D42*
X727300Y396842D03*
X720800Y396842D03*
X714300Y396842D03*
X707800Y396842D03*
X707800Y352458D03*
X714300Y352458D03*
X720800Y352458D03*
X727300Y352458D03*
D24*
X655320Y406400D03*
X640080Y406400D03*
D25*
X647700Y406400D03*
M02*
