M48
;GenerationSoftware,Autodesk,EAGLE,9.5.1*%
;CreationDate,2020-10-02T04:34:35Z*%
FMAT,2
ICI,OFF
METRIC,TZ,000.000
T6C0.381
T5C0.743
T4C0.900
T3C1.016
T2C1.194
T1C3.000
%
G90
M71
T1
X94615Y57150
X33020Y8890
T2
X95250Y36235
X95250Y41235
X95250Y24170
X95250Y29170
T3
X97790Y63500
X97790Y66040
X97790Y68580
X97790Y71120
X44450Y2286
X41910Y2286
X39370Y2286
X36830Y2286
X34290Y2286
X69850Y18415
X69850Y15875
X69850Y13335
X78105Y18415
X78105Y15875
X78105Y13335
X86360Y18415
X86360Y15875
X86360Y13335
X94615Y18415
X94615Y15875
X94615Y13335
X69850Y6350
X69850Y3810
X78105Y6350
X78105Y3810
X86360Y6350
X86360Y3810
X94615Y6350
X94615Y3810
X26035Y5080
X26035Y7620
X26035Y10160
X43180Y27305
X43180Y24765
X43180Y22225
X43180Y19685
X90170Y76835
X90170Y79375
X90170Y81915
X90170Y84455
X90170Y86995
X90170Y94615
X90170Y92075
X90170Y89535
X80010Y76835
X80010Y79375
X80010Y81915
X80010Y84455
X80010Y86995
X80010Y94615
X80010Y92075
X80010Y89535
X69850Y76835
X69850Y79375
X69850Y81915
X69850Y84455
X69850Y86995
X69850Y94615
X69850Y92075
X69850Y89535
X59690Y76835
X59690Y79375
X59690Y81915
X59690Y84455
X59690Y86995
X59690Y94615
X59690Y92075
X59690Y89535
X49530Y76835
X49530Y79375
X49530Y81915
X49530Y84455
X49530Y86995
X49530Y94615
X49530Y92075
X49530Y89535
X39370Y76835
X43180Y14605
X39370Y81915
X39370Y84455
X39370Y86995
X39370Y94615
X39370Y92075
X39370Y89535
X29210Y76835
X29210Y79375
X29210Y81915
X29210Y84455
X29210Y86995
X29210Y94615
X29210Y92075
X29210Y89535
X19050Y76835
X19050Y79375
X19050Y81915
X19050Y84455
X19050Y86995
X19050Y94615
X19050Y92075
X19050Y89535
X39370Y79375
X43180Y17145
X8890Y89535
X8890Y92075
X8890Y94615
X8890Y86995
X8890Y84455
X8890Y81915
X8890Y79375
X8890Y76835
X11430Y41910
X13970Y41910
X16510Y41910
X8890Y41910
X6350Y41910
X3810Y41910
X11430Y33655
X13970Y33655
X16510Y33655
X8890Y33655
X72390Y56515
X74930Y56515
X77470Y56515
X80010Y56515
X87630Y56515
X85090Y56515
X82550Y56515
X24130Y33655
X26670Y33655
X29210Y33655
X36830Y33655
X34290Y33655
X31750Y33655
X24130Y41910
X26670Y41910
X29210Y41910
X36830Y41910
X34290Y41910
X31750Y41910
X3810Y33655
X6350Y33655
T4
X48260Y44450
X48260Y46990
X45720Y46990
X45720Y44450
X50800Y44450
X50800Y46990
T5
X75565Y31115
X75565Y33655
X75565Y36195
X75565Y38735
X75565Y41275
X75565Y43815
X75565Y46355
X67945Y46355
X67945Y43815
X67945Y41275
X67945Y38735
X67945Y36195
X67945Y33655
X67945Y31115
T6
X15875Y58433
X15875Y57137
X9823Y56813
X10795Y57785
X36830Y57569
X36804Y55867
X28575Y62205
X28575Y63500
X38735Y61557
X38735Y63500
X48895Y61150
X48895Y63500
X41288Y52070
X41275Y59703
X64135Y56528
X60769Y60325
X83185Y53340
X50800Y36195
X53200Y53200
X53340Y50178
X47625Y38735
X54610Y42264
X50190Y41885
X47329Y42884
X48730Y52705
X54637Y38481
X55245Y40018
X46355Y38100
X46363Y43172
X54610Y39370
X53353Y42532
X60575Y45372
X56515Y38722
X42545Y35821
X46977Y24130
X45847Y33655
X38938Y28575
X48785Y34654
X40640Y14605
X41910Y26048
X41910Y20942
X39345Y26670
X42545Y34043
X39370Y24765
X38735Y7620
X11178Y68123
X13335Y68580
X21256Y68206
X23495Y68580
X31498Y68159
X41659Y68159
X43815Y68580
X33655Y68580
X51818Y68159
X53975Y68580
X61914Y68224
X64135Y68580
X72074Y68224
X74295Y68580
X82214Y68244
X84455Y68580
X92394Y68224
X94615Y68580
X2540Y48260
X5715Y52705
X5715Y63500
X74471Y36824
X54560Y49480
X56338Y51258
X8255Y12065
X22225Y12065
X50800Y2756
X49784Y33655
X51435Y13360
X49530Y12065
X46736Y33655
X21590Y57137
X22225Y59080
X24130Y36830
X40500Y36182
X46515Y36355
X26670Y35776
X40437Y34925
X45425Y36530
X46825Y35060
X40843Y34043
X29210Y35776
X31750Y37021
X34442Y37478
X36830Y38100
X31750Y39370
X59055Y1905
X23495Y63500
X43815Y63500
X53975Y63500
X64135Y63500
X74295Y63500
X84455Y63500
X94615Y63500
X33655Y63500
X88900Y70373
X78740Y70373
X68580Y70373
X58420Y70373
X48260Y70373
X38100Y70373
X27940Y70373
X17780Y70373
X7620Y70373
X5715Y6350
X19050Y12065
X51435Y29845
X46355Y1905
X45085Y42558
X53975Y28575
X57785Y18415
X62847Y42282
X65405Y31750
X58420Y12065
X50800Y12065
X54209Y6751
X53975Y3810
X48895Y33655
X17780Y57137
X12700Y57137
X88265Y23495
X33655Y27305
X33655Y26035
X33655Y24765
X33655Y23495
X33655Y22225
X33655Y20955
X33655Y19685
X33655Y18415
X33655Y17145
X33655Y28575
X32385Y28575
X73012Y43206
X79375Y32385
X84455Y32385
X55880Y47625
X64770Y46990
X62230Y45085
X72390Y28575
X73025Y31750
X73660Y33020
X25400Y27305
X25400Y26035
X25400Y24765
X25400Y23495
X25400Y22225
X25400Y20955
X25400Y19685
X25400Y18415
X25400Y17145
X24765Y16510
X23495Y16510
X22225Y16510
X20955Y16510
X17145Y16510
X15875Y16510
X14605Y16510
X13335Y16510
X12700Y17145
X12700Y18415
X12700Y19685
X12700Y20955
X12700Y22225
X12700Y23495
X12700Y24765
X12700Y26035
X12700Y27305
X4445Y17145
X4445Y18415
X4445Y19685
X4445Y20955
X4445Y22225
X4445Y23495
X4445Y24765
X4445Y26035
X4445Y27305
X4445Y28575
X5715Y28575
X6985Y28575
X8255Y28575
X9525Y28575
X10795Y28575
X12065Y28575
X13335Y28575
X14605Y28575
X15875Y28575
X17145Y28575
X18415Y28575
X19685Y28575
X20955Y28575
X22225Y28575
X23495Y28575
X24765Y28575
X26035Y28575
X27305Y28575
X28575Y28575
X29845Y28575
X31115Y28575
X39370Y51435
X34290Y51435
X29210Y51435
X24130Y51435
X19050Y51435
X13970Y51435
X8890Y51435
X71120Y59055
X69850Y56515
X57037Y56032
X43815Y48895
X57925Y49670
X13335Y63500
X6985Y63500
X29210Y54610
X34290Y54610
X39370Y54610
X23495Y57137
X6350Y55245
X46990Y37452
X45425Y39030
X43815Y42558
X66675Y37465
X62230Y39992
X49530Y45720
X57785Y43180
X62230Y41288
X59427Y40658
X49530Y57798
X48895Y41910
X46330Y29845
X46330Y26657
X41275Y10795
X40640Y18415
X49530Y38735
X47625Y33655
X63360Y57010
X58295Y55232
X40640Y29210
X42545Y34932
M30