G04 EAGLE Gerber RS-274X export*
G75*
%MOMM*%
%FSLAX34Y34*%
%LPD*%
%INTop Copper*%
%IPPOS*%
%AMOC8*
5,1,8,0,0,1.08239X$1,22.5*%
G01*
%ADD10C,0.130000*%
%ADD11C,0.152400*%
%ADD12R,1.300000X1.500000*%
%ADD13R,1.500000X1.300000*%
%ADD14R,2.032000X0.660400*%
%ADD15P,1.649562X8X22.500000*%
%ADD16P,1.649562X8X292.500000*%
%ADD17R,1.930400X5.334000*%
%ADD18R,0.547100X1.599800*%
%ADD19R,1.599800X0.547100*%
%ADD20R,2.108200X1.397000*%
%ADD21P,1.759533X8X112.500000*%
%ADD22P,1.454083X8X202.500000*%
%ADD23P,1.938236X8X202.500000*%
%ADD24C,1.000000*%
%ADD25R,1.270000X2.540000*%
%ADD26R,2.000000X2.000000*%
%ADD27R,1.168400X1.600200*%
%ADD28R,2.500000X3.500000*%
%ADD29R,1.600000X3.200000*%
%ADD30R,10.800000X10.410000*%
%ADD31R,1.066800X2.159000*%
%ADD32P,1.649562X8X112.500000*%
%ADD33C,0.254000*%
%ADD34R,1.270000X0.635000*%
%ADD35P,2.034460X8X22.500000*%
%ADD36R,1.000000X1.500000*%
%ADD37R,0.609200X1.180100*%
%ADD38C,0.264000*%
%ADD39R,1.600000X1.600000*%
%ADD40R,0.400000X1.500000*%
%ADD41R,0.400000X1.550000*%
%ADD42R,1.750000X2.400000*%
%ADD43R,1.600200X1.168400*%
%ADD44R,0.400000X1.424000*%
%ADD45C,0.508000*%
%ADD46C,0.203200*%
%ADD47C,0.381000*%
%ADD48C,0.685800*%

G36*
X101127Y156214D02*
X101127Y156214D01*
X101161Y156212D01*
X101350Y156234D01*
X101541Y156251D01*
X101574Y156260D01*
X101608Y156264D01*
X101791Y156319D01*
X101975Y156369D01*
X102006Y156384D01*
X102039Y156394D01*
X102210Y156481D01*
X102382Y156563D01*
X102410Y156583D01*
X102441Y156598D01*
X102593Y156714D01*
X102748Y156825D01*
X102772Y156850D01*
X102799Y156870D01*
X102928Y157011D01*
X103062Y157147D01*
X103081Y157176D01*
X103105Y157202D01*
X103207Y157363D01*
X103314Y157520D01*
X103328Y157552D01*
X103346Y157581D01*
X103419Y157758D01*
X103496Y157932D01*
X103504Y157966D01*
X103517Y157998D01*
X103557Y158185D01*
X103603Y158370D01*
X103605Y158404D01*
X103612Y158438D01*
X103631Y158750D01*
X103631Y173882D01*
X103617Y174046D01*
X103610Y174210D01*
X103597Y174269D01*
X103591Y174330D01*
X103548Y174489D01*
X103512Y174649D01*
X103489Y174706D01*
X103473Y174765D01*
X103402Y174913D01*
X103339Y175065D01*
X103306Y175116D01*
X103279Y175171D01*
X103184Y175305D01*
X103095Y175443D01*
X103043Y175501D01*
X103017Y175537D01*
X102974Y175580D01*
X102888Y175677D01*
X101926Y176639D01*
X101826Y176723D01*
X101733Y176813D01*
X101653Y176867D01*
X101580Y176928D01*
X101467Y176993D01*
X101360Y177065D01*
X101272Y177104D01*
X101189Y177152D01*
X101067Y177195D01*
X100948Y177248D01*
X100855Y177270D01*
X100765Y177302D01*
X100637Y177324D01*
X100510Y177354D01*
X100415Y177360D01*
X100321Y177376D01*
X100191Y177374D01*
X100061Y177382D01*
X99966Y177371D01*
X99871Y177370D01*
X99743Y177345D01*
X99614Y177330D01*
X99522Y177302D01*
X99428Y177284D01*
X99307Y177237D01*
X99183Y177200D01*
X99097Y177156D01*
X99008Y177122D01*
X98897Y177054D01*
X98781Y176995D01*
X98705Y176938D01*
X98624Y176888D01*
X98526Y176802D01*
X98423Y176723D01*
X98358Y176653D01*
X98286Y176590D01*
X98206Y176488D01*
X98117Y176392D01*
X98066Y176312D01*
X98007Y176237D01*
X97945Y176122D01*
X97876Y176012D01*
X97839Y175924D01*
X97794Y175840D01*
X97754Y175716D01*
X97705Y175596D01*
X97685Y175502D01*
X97655Y175412D01*
X97637Y175283D01*
X97610Y175156D01*
X97602Y175026D01*
X97594Y174966D01*
X97595Y174921D01*
X97591Y174844D01*
X97591Y164848D01*
X96102Y163359D01*
X68998Y163359D01*
X67509Y164848D01*
X67509Y201952D01*
X68998Y203441D01*
X96102Y203441D01*
X97591Y201952D01*
X97591Y191020D01*
X97594Y190985D01*
X97592Y190951D01*
X97614Y190762D01*
X97631Y190571D01*
X97640Y190538D01*
X97644Y190504D01*
X97699Y190321D01*
X97749Y190137D01*
X97764Y190106D01*
X97774Y190073D01*
X97861Y189902D01*
X97943Y189730D01*
X97963Y189702D01*
X97978Y189671D01*
X98094Y189519D01*
X98205Y189364D01*
X98230Y189340D01*
X98250Y189313D01*
X98390Y189184D01*
X98527Y189050D01*
X98556Y189031D01*
X98582Y189007D01*
X98743Y188905D01*
X98900Y188798D01*
X98932Y188784D01*
X98961Y188766D01*
X99138Y188693D01*
X99312Y188616D01*
X99346Y188608D01*
X99378Y188595D01*
X99565Y188555D01*
X99750Y188509D01*
X99784Y188507D01*
X99818Y188500D01*
X100130Y188481D01*
X103361Y188481D01*
X105228Y187707D01*
X113019Y179916D01*
X113793Y178049D01*
X113793Y158750D01*
X113796Y158716D01*
X113794Y158681D01*
X113816Y158492D01*
X113833Y158302D01*
X113842Y158268D01*
X113846Y158234D01*
X113901Y158051D01*
X113951Y157867D01*
X113966Y157836D01*
X113976Y157803D01*
X114063Y157632D01*
X114145Y157461D01*
X114165Y157432D01*
X114180Y157401D01*
X114296Y157249D01*
X114407Y157094D01*
X114432Y157070D01*
X114452Y157043D01*
X114592Y156914D01*
X114729Y156780D01*
X114758Y156761D01*
X114784Y156738D01*
X114945Y156635D01*
X115102Y156528D01*
X115134Y156514D01*
X115163Y156496D01*
X115340Y156423D01*
X115514Y156346D01*
X115548Y156338D01*
X115580Y156325D01*
X115767Y156285D01*
X115952Y156239D01*
X115986Y156237D01*
X116020Y156230D01*
X116332Y156211D01*
X277368Y156211D01*
X277403Y156214D01*
X277437Y156212D01*
X277626Y156234D01*
X277817Y156251D01*
X277850Y156260D01*
X277884Y156264D01*
X278067Y156319D01*
X278251Y156369D01*
X278282Y156384D01*
X278315Y156394D01*
X278486Y156481D01*
X278658Y156563D01*
X278686Y156583D01*
X278717Y156598D01*
X278869Y156714D01*
X279024Y156825D01*
X279048Y156850D01*
X279075Y156870D01*
X279204Y157011D01*
X279338Y157147D01*
X279357Y157176D01*
X279381Y157202D01*
X279483Y157363D01*
X279590Y157520D01*
X279604Y157552D01*
X279622Y157581D01*
X279695Y157758D01*
X279772Y157932D01*
X279780Y157966D01*
X279793Y157998D01*
X279833Y158185D01*
X279879Y158370D01*
X279881Y158404D01*
X279888Y158438D01*
X279907Y158750D01*
X279907Y164740D01*
X280603Y166420D01*
X283174Y168990D01*
X283279Y169116D01*
X283391Y169237D01*
X283423Y169289D01*
X283462Y169336D01*
X283544Y169478D01*
X283632Y169617D01*
X283656Y169674D01*
X283686Y169727D01*
X283741Y169882D01*
X283803Y170034D01*
X283816Y170093D01*
X283837Y170151D01*
X283863Y170313D01*
X283898Y170474D01*
X283903Y170551D01*
X283910Y170595D01*
X283909Y170656D01*
X283917Y170786D01*
X283917Y201742D01*
X285108Y202933D01*
X311792Y202933D01*
X312983Y201742D01*
X312983Y165058D01*
X311792Y163867D01*
X292036Y163867D01*
X291872Y163853D01*
X291708Y163846D01*
X291648Y163833D01*
X291587Y163827D01*
X291428Y163784D01*
X291268Y163748D01*
X291212Y163725D01*
X291153Y163709D01*
X291004Y163638D01*
X290853Y163575D01*
X290801Y163542D01*
X290746Y163515D01*
X290613Y163420D01*
X290474Y163330D01*
X290417Y163279D01*
X290380Y163253D01*
X290345Y163217D01*
X290342Y163215D01*
X290330Y163203D01*
X290240Y163123D01*
X289796Y162680D01*
X289691Y162553D01*
X289579Y162433D01*
X289547Y162381D01*
X289508Y162334D01*
X289426Y162192D01*
X289338Y162053D01*
X289314Y161996D01*
X289284Y161943D01*
X289229Y161789D01*
X289167Y161636D01*
X289154Y161576D01*
X289133Y161519D01*
X289107Y161357D01*
X289072Y161196D01*
X289067Y161119D01*
X289060Y161075D01*
X289061Y161014D01*
X289053Y160884D01*
X289053Y158750D01*
X289056Y158716D01*
X289054Y158681D01*
X289076Y158492D01*
X289093Y158302D01*
X289102Y158268D01*
X289106Y158234D01*
X289161Y158051D01*
X289211Y157867D01*
X289226Y157836D01*
X289236Y157803D01*
X289323Y157632D01*
X289405Y157461D01*
X289425Y157432D01*
X289440Y157401D01*
X289556Y157249D01*
X289667Y157094D01*
X289692Y157070D01*
X289712Y157043D01*
X289852Y156914D01*
X289989Y156780D01*
X290018Y156761D01*
X290044Y156738D01*
X290205Y156635D01*
X290362Y156528D01*
X290394Y156514D01*
X290423Y156496D01*
X290600Y156423D01*
X290774Y156346D01*
X290808Y156338D01*
X290840Y156325D01*
X291027Y156285D01*
X291212Y156239D01*
X291246Y156237D01*
X291280Y156230D01*
X291592Y156211D01*
X342900Y156211D01*
X342935Y156214D01*
X342969Y156212D01*
X343158Y156234D01*
X343349Y156251D01*
X343382Y156260D01*
X343416Y156264D01*
X343599Y156319D01*
X343783Y156369D01*
X343814Y156384D01*
X343847Y156394D01*
X344018Y156481D01*
X344190Y156563D01*
X344218Y156583D01*
X344249Y156598D01*
X344401Y156714D01*
X344556Y156825D01*
X344580Y156850D01*
X344607Y156870D01*
X344736Y157011D01*
X344870Y157147D01*
X344889Y157176D01*
X344913Y157202D01*
X345015Y157363D01*
X345122Y157520D01*
X345136Y157552D01*
X345154Y157581D01*
X345227Y157758D01*
X345304Y157932D01*
X345312Y157966D01*
X345325Y157998D01*
X345365Y158185D01*
X345411Y158370D01*
X345413Y158404D01*
X345420Y158438D01*
X345439Y158750D01*
X345439Y292100D01*
X345436Y292135D01*
X345438Y292169D01*
X345416Y292358D01*
X345399Y292549D01*
X345390Y292582D01*
X345386Y292616D01*
X345331Y292799D01*
X345281Y292983D01*
X345266Y293014D01*
X345256Y293047D01*
X345169Y293218D01*
X345087Y293390D01*
X345067Y293418D01*
X345052Y293449D01*
X344936Y293601D01*
X344825Y293756D01*
X344800Y293780D01*
X344780Y293807D01*
X344640Y293936D01*
X344503Y294070D01*
X344474Y294089D01*
X344448Y294113D01*
X344287Y294215D01*
X344130Y294322D01*
X344098Y294336D01*
X344069Y294354D01*
X343892Y294427D01*
X343718Y294504D01*
X343684Y294512D01*
X343652Y294525D01*
X343465Y294565D01*
X343280Y294611D01*
X343246Y294613D01*
X343212Y294620D01*
X342900Y294639D01*
X38100Y294639D01*
X38066Y294636D01*
X38031Y294638D01*
X37842Y294616D01*
X37652Y294599D01*
X37618Y294590D01*
X37584Y294586D01*
X37401Y294531D01*
X37217Y294481D01*
X37186Y294466D01*
X37153Y294456D01*
X36982Y294369D01*
X36811Y294287D01*
X36782Y294267D01*
X36751Y294252D01*
X36599Y294136D01*
X36444Y294025D01*
X36420Y294000D01*
X36393Y293980D01*
X36264Y293840D01*
X36130Y293703D01*
X36111Y293674D01*
X36088Y293648D01*
X35985Y293487D01*
X35878Y293330D01*
X35864Y293298D01*
X35846Y293269D01*
X35773Y293092D01*
X35696Y292918D01*
X35688Y292884D01*
X35675Y292852D01*
X35635Y292665D01*
X35589Y292480D01*
X35587Y292446D01*
X35580Y292412D01*
X35561Y292100D01*
X35561Y158750D01*
X35564Y158716D01*
X35562Y158681D01*
X35584Y158492D01*
X35601Y158302D01*
X35610Y158268D01*
X35614Y158234D01*
X35669Y158051D01*
X35719Y157867D01*
X35734Y157836D01*
X35744Y157803D01*
X35831Y157632D01*
X35913Y157461D01*
X35933Y157432D01*
X35948Y157401D01*
X36064Y157249D01*
X36175Y157094D01*
X36200Y157070D01*
X36220Y157043D01*
X36361Y156914D01*
X36497Y156780D01*
X36526Y156761D01*
X36552Y156738D01*
X36713Y156635D01*
X36870Y156528D01*
X36902Y156514D01*
X36931Y156496D01*
X37108Y156423D01*
X37282Y156346D01*
X37316Y156338D01*
X37348Y156325D01*
X37535Y156285D01*
X37720Y156239D01*
X37754Y156237D01*
X37788Y156230D01*
X38100Y156211D01*
X101092Y156211D01*
X101127Y156214D01*
G37*
G36*
X977935Y16514D02*
X977935Y16514D01*
X977969Y16512D01*
X978158Y16534D01*
X978349Y16551D01*
X978382Y16560D01*
X978416Y16564D01*
X978599Y16619D01*
X978783Y16669D01*
X978814Y16684D01*
X978847Y16694D01*
X979018Y16781D01*
X979190Y16863D01*
X979218Y16883D01*
X979249Y16898D01*
X979401Y17014D01*
X979556Y17125D01*
X979580Y17150D01*
X979607Y17170D01*
X979736Y17311D01*
X979870Y17447D01*
X979889Y17476D01*
X979913Y17502D01*
X980015Y17663D01*
X980122Y17820D01*
X980136Y17852D01*
X980154Y17881D01*
X980227Y18058D01*
X980304Y18232D01*
X980312Y18266D01*
X980325Y18298D01*
X980365Y18485D01*
X980411Y18670D01*
X980413Y18704D01*
X980420Y18738D01*
X980439Y19050D01*
X980439Y88900D01*
X980436Y88935D01*
X980438Y88969D01*
X980416Y89158D01*
X980399Y89349D01*
X980390Y89382D01*
X980386Y89416D01*
X980331Y89599D01*
X980281Y89783D01*
X980266Y89814D01*
X980256Y89847D01*
X980169Y90018D01*
X980087Y90190D01*
X980067Y90218D01*
X980052Y90249D01*
X979936Y90401D01*
X979825Y90556D01*
X979800Y90580D01*
X979780Y90607D01*
X979640Y90736D01*
X979503Y90870D01*
X979474Y90889D01*
X979448Y90913D01*
X979287Y91015D01*
X979130Y91122D01*
X979098Y91136D01*
X979069Y91154D01*
X978892Y91227D01*
X978718Y91304D01*
X978684Y91312D01*
X978652Y91325D01*
X978465Y91365D01*
X978280Y91411D01*
X978246Y91413D01*
X978212Y91420D01*
X977900Y91439D01*
X673100Y91439D01*
X673066Y91436D01*
X673031Y91438D01*
X672842Y91416D01*
X672652Y91399D01*
X672618Y91390D01*
X672584Y91386D01*
X672401Y91331D01*
X672217Y91281D01*
X672186Y91266D01*
X672153Y91256D01*
X671982Y91169D01*
X671811Y91087D01*
X671782Y91067D01*
X671751Y91052D01*
X671599Y90936D01*
X671444Y90825D01*
X671420Y90800D01*
X671393Y90780D01*
X671264Y90640D01*
X671130Y90503D01*
X671111Y90474D01*
X671088Y90448D01*
X670985Y90287D01*
X670878Y90130D01*
X670864Y90098D01*
X670846Y90069D01*
X670773Y89892D01*
X670696Y89718D01*
X670688Y89684D01*
X670675Y89652D01*
X670635Y89465D01*
X670589Y89280D01*
X670587Y89246D01*
X670580Y89212D01*
X670561Y88900D01*
X670561Y19050D01*
X670564Y19016D01*
X670562Y18981D01*
X670584Y18792D01*
X670601Y18602D01*
X670610Y18568D01*
X670614Y18534D01*
X670669Y18351D01*
X670719Y18167D01*
X670734Y18136D01*
X670744Y18103D01*
X670831Y17932D01*
X670913Y17761D01*
X670933Y17732D01*
X670948Y17701D01*
X671064Y17549D01*
X671175Y17394D01*
X671200Y17370D01*
X671220Y17343D01*
X671361Y17214D01*
X671497Y17080D01*
X671526Y17061D01*
X671552Y17038D01*
X671713Y16935D01*
X671870Y16828D01*
X671902Y16814D01*
X671931Y16796D01*
X672108Y16723D01*
X672282Y16646D01*
X672316Y16638D01*
X672348Y16625D01*
X672535Y16585D01*
X672720Y16539D01*
X672754Y16537D01*
X672788Y16530D01*
X673100Y16511D01*
X977900Y16511D01*
X977935Y16514D01*
G37*
%LPC*%
G36*
X195579Y227329D02*
X195579Y227329D01*
X195579Y276841D01*
X244835Y276841D01*
X245481Y276668D01*
X246060Y276333D01*
X246533Y275860D01*
X246868Y275281D01*
X247041Y274635D01*
X247041Y227329D01*
X195579Y227329D01*
G37*
%LPD*%
%LPC*%
G36*
X133959Y227329D02*
X133959Y227329D01*
X133959Y274635D01*
X134132Y275281D01*
X134467Y275860D01*
X134940Y276333D01*
X135519Y276668D01*
X136165Y276841D01*
X185421Y276841D01*
X185421Y227329D01*
X133959Y227329D01*
G37*
%LPD*%
%LPC*%
G36*
X195579Y167659D02*
X195579Y167659D01*
X195579Y217171D01*
X247041Y217171D01*
X247041Y169865D01*
X246868Y169219D01*
X246533Y168640D01*
X246060Y168167D01*
X245481Y167832D01*
X244835Y167659D01*
X195579Y167659D01*
G37*
%LPD*%
%LPC*%
G36*
X136165Y167659D02*
X136165Y167659D01*
X135519Y167832D01*
X134940Y168167D01*
X134467Y168640D01*
X134132Y169219D01*
X133959Y169865D01*
X133959Y217171D01*
X185421Y217171D01*
X185421Y167659D01*
X136165Y167659D01*
G37*
%LPD*%
%LPC*%
G36*
X87629Y253479D02*
X87629Y253479D01*
X87629Y268441D01*
X95385Y268441D01*
X96031Y268268D01*
X96610Y267933D01*
X97083Y267460D01*
X97418Y266881D01*
X97591Y266235D01*
X97591Y253479D01*
X87629Y253479D01*
G37*
%LPD*%
%LPC*%
G36*
X303529Y253479D02*
X303529Y253479D01*
X303529Y268441D01*
X311285Y268441D01*
X311931Y268268D01*
X312510Y267933D01*
X312983Y267460D01*
X313318Y266881D01*
X313491Y266235D01*
X313491Y253479D01*
X303529Y253479D01*
G37*
%LPD*%
%LPC*%
G36*
X283409Y253479D02*
X283409Y253479D01*
X283409Y266235D01*
X283582Y266881D01*
X283917Y267460D01*
X284390Y267933D01*
X284969Y268268D01*
X285615Y268441D01*
X293371Y268441D01*
X293371Y253479D01*
X283409Y253479D01*
G37*
%LPD*%
%LPC*%
G36*
X67509Y253479D02*
X67509Y253479D01*
X67509Y266235D01*
X67682Y266881D01*
X68017Y267460D01*
X68490Y267933D01*
X69069Y268268D01*
X69715Y268441D01*
X77471Y268441D01*
X77471Y253479D01*
X67509Y253479D01*
G37*
%LPD*%
%LPC*%
G36*
X87629Y228359D02*
X87629Y228359D01*
X87629Y243321D01*
X97591Y243321D01*
X97591Y230565D01*
X97418Y229919D01*
X97083Y229340D01*
X96610Y228867D01*
X96031Y228532D01*
X95385Y228359D01*
X87629Y228359D01*
G37*
%LPD*%
%LPC*%
G36*
X303529Y228359D02*
X303529Y228359D01*
X303529Y243321D01*
X313491Y243321D01*
X313491Y230565D01*
X313318Y229919D01*
X312983Y229340D01*
X312510Y228867D01*
X311931Y228532D01*
X311285Y228359D01*
X303529Y228359D01*
G37*
%LPD*%
%LPC*%
G36*
X285615Y228359D02*
X285615Y228359D01*
X284969Y228532D01*
X284390Y228867D01*
X283917Y229340D01*
X283582Y229919D01*
X283409Y230565D01*
X283409Y243321D01*
X293371Y243321D01*
X293371Y228359D01*
X285615Y228359D01*
G37*
%LPD*%
%LPC*%
G36*
X69715Y228359D02*
X69715Y228359D01*
X69069Y228532D01*
X68490Y228867D01*
X68017Y229340D01*
X67682Y229919D01*
X67509Y230565D01*
X67509Y243321D01*
X77471Y243321D01*
X77471Y228359D01*
X69715Y228359D01*
G37*
%LPD*%
%LPC*%
G36*
X783589Y66039D02*
X783589Y66039D01*
X783589Y73661D01*
X785259Y73661D01*
X791211Y67709D01*
X791211Y66039D01*
X783589Y66039D01*
G37*
%LPD*%
%LPC*%
G36*
X948689Y66039D02*
X948689Y66039D01*
X948689Y73661D01*
X950359Y73661D01*
X956311Y67709D01*
X956311Y66039D01*
X948689Y66039D01*
G37*
%LPD*%
%LPC*%
G36*
X701039Y40639D02*
X701039Y40639D01*
X701039Y48261D01*
X702709Y48261D01*
X708661Y42309D01*
X708661Y40639D01*
X701039Y40639D01*
G37*
%LPD*%
%LPC*%
G36*
X866139Y66039D02*
X866139Y66039D01*
X866139Y73661D01*
X867809Y73661D01*
X873761Y67709D01*
X873761Y66039D01*
X866139Y66039D01*
G37*
%LPD*%
%LPC*%
G36*
X948689Y40639D02*
X948689Y40639D01*
X948689Y48261D01*
X950359Y48261D01*
X956311Y42309D01*
X956311Y40639D01*
X948689Y40639D01*
G37*
%LPD*%
%LPC*%
G36*
X866139Y40639D02*
X866139Y40639D01*
X866139Y48261D01*
X867809Y48261D01*
X873761Y42309D01*
X873761Y40639D01*
X866139Y40639D01*
G37*
%LPD*%
%LPC*%
G36*
X783589Y40639D02*
X783589Y40639D01*
X783589Y48261D01*
X785259Y48261D01*
X791211Y42309D01*
X791211Y40639D01*
X783589Y40639D01*
G37*
%LPD*%
%LPC*%
G36*
X701039Y66039D02*
X701039Y66039D01*
X701039Y73661D01*
X702709Y73661D01*
X708661Y67709D01*
X708661Y66039D01*
X701039Y66039D01*
G37*
%LPD*%
%LPC*%
G36*
X688339Y66039D02*
X688339Y66039D01*
X688339Y67709D01*
X694291Y73661D01*
X695961Y73661D01*
X695961Y66039D01*
X688339Y66039D01*
G37*
%LPD*%
%LPC*%
G36*
X770889Y66039D02*
X770889Y66039D01*
X770889Y67709D01*
X776841Y73661D01*
X778511Y73661D01*
X778511Y66039D01*
X770889Y66039D01*
G37*
%LPD*%
%LPC*%
G36*
X853439Y66039D02*
X853439Y66039D01*
X853439Y67709D01*
X859391Y73661D01*
X861061Y73661D01*
X861061Y66039D01*
X853439Y66039D01*
G37*
%LPD*%
%LPC*%
G36*
X935989Y66039D02*
X935989Y66039D01*
X935989Y67709D01*
X941941Y73661D01*
X943611Y73661D01*
X943611Y66039D01*
X935989Y66039D01*
G37*
%LPD*%
%LPC*%
G36*
X935989Y40639D02*
X935989Y40639D01*
X935989Y42309D01*
X941941Y48261D01*
X943611Y48261D01*
X943611Y40639D01*
X935989Y40639D01*
G37*
%LPD*%
%LPC*%
G36*
X701039Y53339D02*
X701039Y53339D01*
X701039Y60961D01*
X708661Y60961D01*
X708661Y59291D01*
X702709Y53339D01*
X701039Y53339D01*
G37*
%LPD*%
%LPC*%
G36*
X853439Y40639D02*
X853439Y40639D01*
X853439Y42309D01*
X859391Y48261D01*
X861061Y48261D01*
X861061Y40639D01*
X853439Y40639D01*
G37*
%LPD*%
%LPC*%
G36*
X770889Y40639D02*
X770889Y40639D01*
X770889Y42309D01*
X776841Y48261D01*
X778511Y48261D01*
X778511Y40639D01*
X770889Y40639D01*
G37*
%LPD*%
%LPC*%
G36*
X688339Y40639D02*
X688339Y40639D01*
X688339Y42309D01*
X694291Y48261D01*
X695961Y48261D01*
X695961Y40639D01*
X688339Y40639D01*
G37*
%LPD*%
%LPC*%
G36*
X701039Y27939D02*
X701039Y27939D01*
X701039Y35561D01*
X708661Y35561D01*
X708661Y33891D01*
X702709Y27939D01*
X701039Y27939D01*
G37*
%LPD*%
%LPC*%
G36*
X783589Y53339D02*
X783589Y53339D01*
X783589Y60961D01*
X791211Y60961D01*
X791211Y59291D01*
X785259Y53339D01*
X783589Y53339D01*
G37*
%LPD*%
%LPC*%
G36*
X948689Y27939D02*
X948689Y27939D01*
X948689Y35561D01*
X956311Y35561D01*
X956311Y33891D01*
X950359Y27939D01*
X948689Y27939D01*
G37*
%LPD*%
%LPC*%
G36*
X866139Y53339D02*
X866139Y53339D01*
X866139Y60961D01*
X873761Y60961D01*
X873761Y59291D01*
X867809Y53339D01*
X866139Y53339D01*
G37*
%LPD*%
%LPC*%
G36*
X866139Y27939D02*
X866139Y27939D01*
X866139Y35561D01*
X873761Y35561D01*
X873761Y33891D01*
X867809Y27939D01*
X866139Y27939D01*
G37*
%LPD*%
%LPC*%
G36*
X948689Y53339D02*
X948689Y53339D01*
X948689Y60961D01*
X956311Y60961D01*
X956311Y59291D01*
X950359Y53339D01*
X948689Y53339D01*
G37*
%LPD*%
%LPC*%
G36*
X783589Y27939D02*
X783589Y27939D01*
X783589Y35561D01*
X791211Y35561D01*
X791211Y33891D01*
X785259Y27939D01*
X783589Y27939D01*
G37*
%LPD*%
%LPC*%
G36*
X859391Y53339D02*
X859391Y53339D01*
X853439Y59291D01*
X853439Y60961D01*
X861061Y60961D01*
X861061Y53339D01*
X859391Y53339D01*
G37*
%LPD*%
%LPC*%
G36*
X941941Y53339D02*
X941941Y53339D01*
X935989Y59291D01*
X935989Y60961D01*
X943611Y60961D01*
X943611Y53339D01*
X941941Y53339D01*
G37*
%LPD*%
%LPC*%
G36*
X694291Y27939D02*
X694291Y27939D01*
X688339Y33891D01*
X688339Y35561D01*
X695961Y35561D01*
X695961Y27939D01*
X694291Y27939D01*
G37*
%LPD*%
%LPC*%
G36*
X776841Y27939D02*
X776841Y27939D01*
X770889Y33891D01*
X770889Y35561D01*
X778511Y35561D01*
X778511Y27939D01*
X776841Y27939D01*
G37*
%LPD*%
%LPC*%
G36*
X776841Y53339D02*
X776841Y53339D01*
X770889Y59291D01*
X770889Y60961D01*
X778511Y60961D01*
X778511Y53339D01*
X776841Y53339D01*
G37*
%LPD*%
%LPC*%
G36*
X859391Y27939D02*
X859391Y27939D01*
X853439Y33891D01*
X853439Y35561D01*
X861061Y35561D01*
X861061Y27939D01*
X859391Y27939D01*
G37*
%LPD*%
%LPC*%
G36*
X694291Y53339D02*
X694291Y53339D01*
X688339Y59291D01*
X688339Y60961D01*
X695961Y60961D01*
X695961Y53339D01*
X694291Y53339D01*
G37*
%LPD*%
%LPC*%
G36*
X941941Y27939D02*
X941941Y27939D01*
X935989Y33891D01*
X935989Y35561D01*
X943611Y35561D01*
X943611Y27939D01*
X941941Y27939D01*
G37*
%LPD*%
%LPC*%
G36*
X190499Y222249D02*
X190499Y222249D01*
X190499Y222251D01*
X190501Y222251D01*
X190501Y222249D01*
X190499Y222249D01*
G37*
%LPD*%
%LPC*%
G36*
X298449Y248399D02*
X298449Y248399D01*
X298449Y248401D01*
X298451Y248401D01*
X298451Y248399D01*
X298449Y248399D01*
G37*
%LPD*%
%LPC*%
G36*
X82549Y248399D02*
X82549Y248399D01*
X82549Y248401D01*
X82551Y248401D01*
X82551Y248399D01*
X82549Y248399D01*
G37*
%LPD*%
D10*
X0Y0D02*
X39189Y-39189D01*
X77289Y-1089D02*
X38100Y38100D01*
X24940Y-25860D02*
X-11370Y-62170D01*
X63960Y13160D02*
X116914Y66114D01*
X24940Y-25860D02*
X4758Y-41527D01*
X9273Y-46042D01*
X24940Y-25860D01*
X6096Y-42866D01*
X7934Y-44704D02*
X24940Y-25860D01*
X5177Y-41946D01*
X8854Y-45623D02*
X24940Y-25860D01*
X63960Y13160D02*
X79627Y33342D01*
X84142Y28827D01*
X63960Y13160D01*
X80966Y32004D01*
X82804Y30166D02*
X63960Y13160D01*
X80046Y32923D01*
X83723Y29246D02*
X63960Y13160D01*
D11*
X77822Y36225D02*
X81654Y40056D01*
X81654Y40057D02*
X81736Y40142D01*
X81816Y40229D01*
X81892Y40320D01*
X81966Y40412D01*
X82036Y40507D01*
X82103Y40604D01*
X82167Y40704D01*
X82228Y40805D01*
X82285Y40908D01*
X82340Y41013D01*
X82390Y41120D01*
X82437Y41229D01*
X82480Y41339D01*
X82520Y41450D01*
X82556Y41562D01*
X82589Y41676D01*
X82618Y41791D01*
X82643Y41906D01*
X82664Y42023D01*
X82681Y42140D01*
X82695Y42257D01*
X82704Y42375D01*
X82710Y42493D01*
X82712Y42611D01*
X82710Y42729D01*
X82704Y42847D01*
X82695Y42965D01*
X82681Y43082D01*
X82664Y43199D01*
X82643Y43316D01*
X82618Y43431D01*
X82589Y43546D01*
X82556Y43660D01*
X82520Y43772D01*
X82480Y43883D01*
X82437Y43993D01*
X82390Y44102D01*
X82340Y44209D01*
X82285Y44314D01*
X82228Y44417D01*
X82167Y44518D01*
X82103Y44618D01*
X82036Y44715D01*
X81966Y44810D01*
X81892Y44902D01*
X81816Y44993D01*
X81736Y45080D01*
X81654Y45165D01*
X80377Y46442D01*
X80376Y46442D02*
X80291Y46524D01*
X80204Y46604D01*
X80113Y46680D01*
X80021Y46754D01*
X79926Y46824D01*
X79829Y46891D01*
X79729Y46955D01*
X79628Y47016D01*
X79525Y47073D01*
X79420Y47128D01*
X79313Y47178D01*
X79204Y47225D01*
X79094Y47268D01*
X78983Y47308D01*
X78871Y47344D01*
X78757Y47377D01*
X78642Y47406D01*
X78527Y47431D01*
X78410Y47452D01*
X78293Y47469D01*
X78176Y47483D01*
X78058Y47492D01*
X77940Y47498D01*
X77822Y47500D01*
X77704Y47498D01*
X77586Y47492D01*
X77468Y47483D01*
X77351Y47469D01*
X77234Y47452D01*
X77117Y47431D01*
X77002Y47406D01*
X76887Y47377D01*
X76774Y47344D01*
X76661Y47308D01*
X76550Y47268D01*
X76440Y47225D01*
X76331Y47178D01*
X76224Y47128D01*
X76119Y47074D01*
X76016Y47016D01*
X75915Y46955D01*
X75815Y46891D01*
X75718Y46824D01*
X75623Y46754D01*
X75531Y46680D01*
X75440Y46604D01*
X75353Y46524D01*
X75268Y46442D01*
X71436Y42611D01*
X66328Y47719D01*
X72714Y54105D01*
X87795Y47474D02*
X88433Y46835D01*
X87795Y47474D02*
X88433Y48113D01*
X89072Y47474D01*
X88433Y46835D01*
X93296Y51699D02*
X96489Y54892D01*
X96583Y54988D01*
X96673Y55086D01*
X96760Y55188D01*
X96845Y55292D01*
X96926Y55398D01*
X97004Y55507D01*
X97079Y55618D01*
X97150Y55731D01*
X97218Y55846D01*
X97283Y55964D01*
X97344Y56083D01*
X97401Y56203D01*
X97455Y56326D01*
X97506Y56450D01*
X97552Y56575D01*
X97595Y56702D01*
X97634Y56830D01*
X97669Y56959D01*
X97701Y57089D01*
X97728Y57220D01*
X97752Y57352D01*
X97772Y57484D01*
X97788Y57617D01*
X97800Y57751D01*
X97808Y57884D01*
X97812Y58018D01*
X97812Y58152D01*
X97808Y58286D01*
X97800Y58419D01*
X97788Y58553D01*
X97772Y58686D01*
X97752Y58818D01*
X97728Y58950D01*
X97701Y59081D01*
X97669Y59211D01*
X97634Y59340D01*
X97595Y59468D01*
X97552Y59595D01*
X97506Y59720D01*
X97455Y59844D01*
X97401Y59967D01*
X97344Y60087D01*
X97283Y60206D01*
X97218Y60324D01*
X97150Y60439D01*
X97079Y60552D01*
X97004Y60663D01*
X96926Y60772D01*
X96845Y60878D01*
X96760Y60982D01*
X96673Y61084D01*
X96583Y61182D01*
X96489Y61278D01*
X96393Y61372D01*
X96295Y61462D01*
X96193Y61549D01*
X96089Y61634D01*
X95983Y61715D01*
X95874Y61793D01*
X95763Y61868D01*
X95650Y61939D01*
X95535Y62007D01*
X95417Y62072D01*
X95298Y62133D01*
X95178Y62190D01*
X95055Y62244D01*
X94931Y62295D01*
X94806Y62341D01*
X94679Y62384D01*
X94551Y62423D01*
X94422Y62458D01*
X94292Y62490D01*
X94161Y62517D01*
X94029Y62541D01*
X93897Y62561D01*
X93764Y62577D01*
X93630Y62589D01*
X93497Y62597D01*
X93363Y62601D01*
X93229Y62601D01*
X93095Y62597D01*
X92962Y62589D01*
X92828Y62577D01*
X92696Y62561D01*
X92563Y62541D01*
X92431Y62517D01*
X92300Y62490D01*
X92170Y62458D01*
X92041Y62423D01*
X91913Y62384D01*
X91786Y62341D01*
X91661Y62295D01*
X91537Y62244D01*
X91414Y62190D01*
X91294Y62133D01*
X91175Y62072D01*
X91057Y62007D01*
X90942Y61939D01*
X90829Y61868D01*
X90718Y61793D01*
X90609Y61715D01*
X90503Y61634D01*
X90399Y61549D01*
X90298Y61462D01*
X90199Y61372D01*
X90103Y61278D01*
X85633Y67025D02*
X81802Y63193D01*
X85634Y67025D02*
X85720Y67108D01*
X85808Y67188D01*
X85899Y67265D01*
X85993Y67340D01*
X86089Y67411D01*
X86187Y67478D01*
X86288Y67543D01*
X86391Y67604D01*
X86495Y67662D01*
X86602Y67716D01*
X86710Y67767D01*
X86820Y67814D01*
X86931Y67857D01*
X87043Y67897D01*
X87157Y67933D01*
X87272Y67965D01*
X87388Y67993D01*
X87505Y68018D01*
X87623Y68039D01*
X87741Y68055D01*
X87860Y68068D01*
X87979Y68077D01*
X88098Y68082D01*
X88218Y68083D01*
X88337Y68080D01*
X88457Y68073D01*
X88575Y68062D01*
X88694Y68047D01*
X88812Y68029D01*
X88929Y68006D01*
X89046Y67980D01*
X89161Y67949D01*
X89276Y67915D01*
X89389Y67877D01*
X89501Y67836D01*
X89612Y67791D01*
X89721Y67742D01*
X89828Y67689D01*
X89933Y67633D01*
X90037Y67574D01*
X90139Y67511D01*
X90238Y67445D01*
X90335Y67376D01*
X90430Y67303D01*
X90522Y67227D01*
X90612Y67149D01*
X90699Y67067D01*
X90784Y66982D01*
X90866Y66895D01*
X90944Y66805D01*
X91020Y66713D01*
X91093Y66618D01*
X91162Y66521D01*
X91228Y66422D01*
X91291Y66320D01*
X91350Y66216D01*
X91406Y66111D01*
X91459Y66004D01*
X91508Y65895D01*
X91553Y65784D01*
X91594Y65672D01*
X91632Y65559D01*
X91666Y65444D01*
X91697Y65329D01*
X91723Y65212D01*
X91746Y65095D01*
X91764Y64977D01*
X91779Y64858D01*
X91790Y64740D01*
X91797Y64620D01*
X91800Y64501D01*
X91799Y64381D01*
X91794Y64262D01*
X91785Y64143D01*
X91772Y64024D01*
X91756Y63906D01*
X91735Y63788D01*
X91710Y63671D01*
X91682Y63555D01*
X91650Y63440D01*
X91614Y63326D01*
X91574Y63214D01*
X91531Y63103D01*
X91484Y62993D01*
X91433Y62885D01*
X91379Y62778D01*
X91321Y62674D01*
X91260Y62571D01*
X91195Y62470D01*
X91128Y62372D01*
X91057Y62276D01*
X90982Y62182D01*
X90905Y62091D01*
X90825Y62003D01*
X90742Y61917D01*
X90742Y61916D02*
X88188Y59362D01*
X101795Y70415D02*
X105627Y74246D01*
X101795Y70415D02*
X101710Y70333D01*
X101623Y70253D01*
X101532Y70177D01*
X101440Y70103D01*
X101345Y70033D01*
X101248Y69966D01*
X101148Y69902D01*
X101047Y69841D01*
X100944Y69783D01*
X100839Y69729D01*
X100732Y69679D01*
X100623Y69632D01*
X100513Y69589D01*
X100402Y69549D01*
X100290Y69513D01*
X100176Y69480D01*
X100061Y69451D01*
X99946Y69426D01*
X99829Y69405D01*
X99712Y69388D01*
X99595Y69374D01*
X99477Y69365D01*
X99359Y69359D01*
X99241Y69357D01*
X99123Y69359D01*
X99005Y69365D01*
X98887Y69374D01*
X98770Y69388D01*
X98653Y69405D01*
X98536Y69426D01*
X98421Y69451D01*
X98306Y69480D01*
X98192Y69513D01*
X98080Y69549D01*
X97969Y69589D01*
X97859Y69632D01*
X97750Y69679D01*
X97643Y69729D01*
X97538Y69783D01*
X97435Y69841D01*
X97334Y69902D01*
X97234Y69966D01*
X97137Y70033D01*
X97042Y70103D01*
X96950Y70177D01*
X96859Y70253D01*
X96772Y70333D01*
X96687Y70415D01*
X96686Y70415D02*
X96048Y71053D01*
X95954Y71149D01*
X95864Y71247D01*
X95777Y71349D01*
X95692Y71453D01*
X95611Y71559D01*
X95533Y71668D01*
X95458Y71779D01*
X95387Y71892D01*
X95319Y72007D01*
X95254Y72125D01*
X95193Y72244D01*
X95136Y72364D01*
X95082Y72487D01*
X95031Y72611D01*
X94985Y72736D01*
X94942Y72863D01*
X94903Y72991D01*
X94868Y73120D01*
X94836Y73250D01*
X94809Y73381D01*
X94785Y73513D01*
X94765Y73645D01*
X94749Y73778D01*
X94737Y73912D01*
X94729Y74045D01*
X94725Y74179D01*
X94725Y74313D01*
X94729Y74447D01*
X94737Y74580D01*
X94749Y74714D01*
X94765Y74847D01*
X94785Y74979D01*
X94809Y75111D01*
X94836Y75242D01*
X94868Y75372D01*
X94903Y75501D01*
X94942Y75629D01*
X94985Y75756D01*
X95031Y75881D01*
X95082Y76005D01*
X95136Y76128D01*
X95193Y76248D01*
X95254Y76367D01*
X95319Y76485D01*
X95387Y76600D01*
X95458Y76713D01*
X95533Y76824D01*
X95611Y76933D01*
X95692Y77039D01*
X95777Y77143D01*
X95864Y77245D01*
X95954Y77343D01*
X96048Y77439D01*
X96144Y77533D01*
X96242Y77623D01*
X96344Y77710D01*
X96448Y77795D01*
X96554Y77876D01*
X96663Y77954D01*
X96774Y78029D01*
X96887Y78100D01*
X97002Y78168D01*
X97120Y78233D01*
X97239Y78294D01*
X97359Y78351D01*
X97482Y78405D01*
X97606Y78456D01*
X97731Y78502D01*
X97858Y78545D01*
X97986Y78584D01*
X98115Y78619D01*
X98245Y78651D01*
X98376Y78678D01*
X98508Y78702D01*
X98640Y78722D01*
X98773Y78738D01*
X98907Y78750D01*
X99040Y78758D01*
X99174Y78762D01*
X99308Y78762D01*
X99442Y78758D01*
X99575Y78750D01*
X99709Y78738D01*
X99841Y78722D01*
X99974Y78702D01*
X100106Y78678D01*
X100237Y78651D01*
X100367Y78619D01*
X100496Y78584D01*
X100624Y78545D01*
X100751Y78502D01*
X100876Y78456D01*
X101000Y78405D01*
X101123Y78351D01*
X101243Y78294D01*
X101362Y78233D01*
X101480Y78168D01*
X101595Y78100D01*
X101708Y78029D01*
X101819Y77954D01*
X101928Y77876D01*
X102034Y77795D01*
X102138Y77710D01*
X102239Y77623D01*
X102338Y77533D01*
X102434Y77439D01*
X105627Y74246D01*
X105627Y74247D02*
X105749Y74122D01*
X105868Y73994D01*
X105983Y73863D01*
X106096Y73730D01*
X106205Y73594D01*
X106311Y73455D01*
X106414Y73314D01*
X106513Y73170D01*
X106609Y73024D01*
X106701Y72876D01*
X106790Y72725D01*
X106874Y72573D01*
X106956Y72418D01*
X107033Y72262D01*
X107106Y72103D01*
X107176Y71943D01*
X107242Y71781D01*
X107304Y71618D01*
X107362Y71454D01*
X107416Y71287D01*
X107466Y71120D01*
X107512Y70952D01*
X107553Y70782D01*
X107591Y70612D01*
X107625Y70440D01*
X107654Y70268D01*
X107679Y70095D01*
X107700Y69922D01*
X107717Y69748D01*
X107730Y69574D01*
X107738Y69400D01*
X107742Y69225D01*
X107742Y69051D01*
X107738Y68876D01*
X107730Y68702D01*
X107717Y68528D01*
X107700Y68354D01*
X107679Y68181D01*
X107654Y68008D01*
X107625Y67836D01*
X107591Y67664D01*
X107553Y67494D01*
X107512Y67324D01*
X107466Y67156D01*
X107416Y66989D01*
X107362Y66822D01*
X107304Y66658D01*
X107242Y66495D01*
X107176Y66333D01*
X107106Y66173D01*
X107033Y66014D01*
X106956Y65858D01*
X106874Y65703D01*
X106790Y65551D01*
X106701Y65400D01*
X106609Y65252D01*
X106513Y65106D01*
X106414Y64962D01*
X106311Y64821D01*
X106205Y64682D01*
X106096Y64546D01*
X105983Y64413D01*
X105868Y64282D01*
X105749Y64154D01*
X105627Y64029D01*
D12*
X536600Y565150D03*
X555600Y565150D03*
D13*
X685800Y581000D03*
X685800Y562000D03*
D14*
X451866Y584200D03*
X513334Y584200D03*
X451866Y571500D03*
X451866Y558800D03*
X513334Y571500D03*
X513334Y558800D03*
X451866Y546100D03*
X513334Y546100D03*
X451866Y533400D03*
X513334Y533400D03*
X451866Y520700D03*
X451866Y508000D03*
X513334Y520700D03*
X513334Y508000D03*
X451866Y495300D03*
X513334Y495300D03*
X597916Y584200D03*
X659384Y584200D03*
X597916Y571500D03*
X597916Y558800D03*
X659384Y571500D03*
X659384Y558800D03*
X597916Y546100D03*
X659384Y546100D03*
X597916Y533400D03*
X659384Y533400D03*
X597916Y520700D03*
X597916Y508000D03*
X659384Y520700D03*
X659384Y508000D03*
X597916Y495300D03*
X659384Y495300D03*
D15*
X88900Y895350D03*
X88900Y920750D03*
X88900Y946150D03*
X88900Y869950D03*
X88900Y844550D03*
X88900Y819150D03*
X88900Y793750D03*
X88900Y768350D03*
D16*
X114300Y419100D03*
X139700Y419100D03*
X165100Y419100D03*
X88900Y419100D03*
X63500Y419100D03*
X38100Y419100D03*
X114300Y336550D03*
X139700Y336550D03*
X165100Y336550D03*
X88900Y336550D03*
X63500Y336550D03*
X38100Y336550D03*
X317500Y419100D03*
X342900Y419100D03*
X368300Y419100D03*
X292100Y419100D03*
X266700Y419100D03*
X241300Y419100D03*
X317500Y336550D03*
X342900Y336550D03*
X368300Y336550D03*
X292100Y336550D03*
X266700Y336550D03*
X241300Y336550D03*
X825500Y565150D03*
X850900Y565150D03*
X876300Y565150D03*
X800100Y565150D03*
X774700Y565150D03*
X749300Y565150D03*
X723900Y565150D03*
D17*
X609600Y269240D03*
X609600Y365760D03*
D13*
X654050Y301600D03*
X654050Y282600D03*
X654050Y333400D03*
X654050Y352400D03*
D18*
X454600Y320137D03*
X462600Y320137D03*
X470600Y320137D03*
X478600Y320137D03*
X486600Y320137D03*
X494600Y320137D03*
X502600Y320137D03*
X510600Y320137D03*
D19*
X524413Y333950D03*
X524413Y341950D03*
X524413Y349950D03*
X524413Y357950D03*
X524413Y365950D03*
X524413Y373950D03*
X524413Y381950D03*
X524413Y389950D03*
D18*
X510600Y403763D03*
X502600Y403763D03*
X494600Y403763D03*
X486600Y403763D03*
X478600Y403763D03*
X470600Y403763D03*
X462600Y403763D03*
X454600Y403763D03*
D19*
X440787Y389950D03*
X440787Y381950D03*
X440787Y373950D03*
X440787Y365950D03*
X440787Y357950D03*
X440787Y349950D03*
X440787Y341950D03*
X440787Y333950D03*
D13*
X539750Y269850D03*
X539750Y250850D03*
X488950Y250850D03*
X488950Y269850D03*
X514350Y250850D03*
X514350Y269850D03*
X203200Y555600D03*
X203200Y536600D03*
X177800Y555600D03*
X177800Y536600D03*
X152400Y555600D03*
X152400Y536600D03*
X127000Y555600D03*
X127000Y536600D03*
X101600Y555600D03*
X101600Y536600D03*
X76200Y555600D03*
X76200Y536600D03*
X406400Y555600D03*
X406400Y536600D03*
X381000Y555600D03*
X381000Y536600D03*
X355600Y555600D03*
X355600Y536600D03*
X330200Y555600D03*
X330200Y536600D03*
X254000Y555600D03*
X254000Y536600D03*
X228600Y555600D03*
X228600Y536600D03*
X304800Y555600D03*
X304800Y536600D03*
X279400Y555600D03*
X279400Y536600D03*
X82550Y650900D03*
X82550Y669900D03*
X57150Y650900D03*
X57150Y669900D03*
X107950Y650900D03*
X107950Y669900D03*
X133350Y650900D03*
X133350Y669900D03*
X184150Y650900D03*
X184150Y669900D03*
X158750Y650900D03*
X158750Y669900D03*
X209550Y650900D03*
X209550Y669900D03*
X234950Y650900D03*
X234950Y669900D03*
X285750Y650900D03*
X285750Y669900D03*
X260350Y650900D03*
X260350Y669900D03*
X311150Y650900D03*
X311150Y669900D03*
X336550Y650900D03*
X336550Y669900D03*
X387350Y650900D03*
X387350Y669900D03*
X361950Y650900D03*
X361950Y669900D03*
X412750Y650900D03*
X412750Y669900D03*
X438150Y650900D03*
X438150Y669900D03*
X488950Y650900D03*
X488950Y669900D03*
X463550Y650900D03*
X463550Y669900D03*
X514350Y650900D03*
X514350Y669900D03*
X539750Y650900D03*
X539750Y669900D03*
X590550Y650900D03*
X590550Y669900D03*
X565150Y650900D03*
X565150Y669900D03*
X615950Y650900D03*
X615950Y669900D03*
X641350Y650900D03*
X641350Y669900D03*
X692150Y650900D03*
X692150Y669900D03*
X666750Y650900D03*
X666750Y669900D03*
X717550Y650900D03*
X717550Y669900D03*
X742950Y650900D03*
X742950Y669900D03*
X793750Y650900D03*
X793750Y669900D03*
X768350Y650900D03*
X768350Y669900D03*
X819150Y650900D03*
X819150Y669900D03*
X844550Y650900D03*
X844550Y669900D03*
X895350Y650900D03*
X895350Y669900D03*
X869950Y650900D03*
X869950Y669900D03*
X920750Y650900D03*
X920750Y669900D03*
X946150Y650900D03*
X946150Y669900D03*
D20*
X558800Y228600D03*
X467614Y228600D03*
X558800Y183642D03*
X467614Y183642D03*
D21*
X482600Y444500D03*
X482600Y469900D03*
X457200Y469900D03*
X457200Y444500D03*
X508000Y444500D03*
X508000Y469900D03*
D22*
X755650Y311150D03*
X755650Y336550D03*
X755650Y361950D03*
X755650Y387350D03*
X755650Y412750D03*
X755650Y438150D03*
X755650Y463550D03*
X679450Y463550D03*
X679450Y438150D03*
X679450Y412750D03*
X679450Y387350D03*
X679450Y361950D03*
X679450Y336550D03*
X679450Y311150D03*
D12*
X752450Y273050D03*
X733450Y273050D03*
X828700Y514350D03*
X847700Y514350D03*
X790600Y603250D03*
X809600Y603250D03*
X733450Y603250D03*
X752450Y603250D03*
D15*
X190500Y895350D03*
X190500Y920750D03*
X190500Y946150D03*
X190500Y869950D03*
X190500Y844550D03*
X190500Y819150D03*
X190500Y793750D03*
X190500Y768350D03*
X292100Y895350D03*
X292100Y920750D03*
X292100Y946150D03*
X292100Y869950D03*
X292100Y844550D03*
X292100Y819150D03*
X292100Y793750D03*
X292100Y768350D03*
X393700Y895350D03*
X393700Y920750D03*
X393700Y946150D03*
X393700Y869950D03*
X393700Y844550D03*
X393700Y819150D03*
X393700Y793750D03*
X393700Y768350D03*
X495300Y895350D03*
X495300Y920750D03*
X495300Y946150D03*
X495300Y869950D03*
X495300Y844550D03*
X495300Y819150D03*
X495300Y793750D03*
X495300Y768350D03*
X596900Y895350D03*
X596900Y920750D03*
X596900Y946150D03*
X596900Y869950D03*
X596900Y844550D03*
X596900Y819150D03*
X596900Y793750D03*
X596900Y768350D03*
X698500Y895350D03*
X698500Y920750D03*
X698500Y946150D03*
X698500Y869950D03*
X698500Y844550D03*
X698500Y819150D03*
X698500Y793750D03*
X698500Y768350D03*
X800100Y895350D03*
X800100Y920750D03*
X800100Y946150D03*
X800100Y869950D03*
X800100Y844550D03*
X800100Y819150D03*
X800100Y793750D03*
X800100Y768350D03*
X901700Y895350D03*
X901700Y920750D03*
X901700Y946150D03*
X901700Y869950D03*
X901700Y844550D03*
X901700Y819150D03*
X901700Y793750D03*
X901700Y768350D03*
D12*
X612750Y463550D03*
X593750Y463550D03*
X498450Y298450D03*
X479450Y298450D03*
D23*
X952500Y362350D03*
X952500Y412350D03*
X952500Y241700D03*
X952500Y291700D03*
D24*
X25400Y25400D03*
X971550Y965200D03*
D25*
X57150Y139700D03*
X82550Y139700D03*
X107950Y139700D03*
D26*
X115250Y63500D03*
X75250Y63500D03*
D27*
X299720Y146050D03*
X284480Y146050D03*
D28*
X298450Y183400D03*
X298450Y248400D03*
X82550Y183400D03*
X82550Y248400D03*
D29*
X143650Y63500D03*
X224650Y63500D03*
D30*
X190500Y222250D03*
D31*
X156464Y138938D03*
X173482Y138938D03*
X190500Y138938D03*
X207518Y138938D03*
X224536Y138938D03*
D15*
X260350Y101600D03*
X260350Y76200D03*
X260350Y50800D03*
X946150Y38100D03*
X946150Y63500D03*
X863600Y38100D03*
X863600Y63500D03*
X781050Y38100D03*
X781050Y63500D03*
X698500Y38100D03*
X698500Y63500D03*
X946150Y133350D03*
X946150Y158750D03*
X946150Y184150D03*
X863600Y133350D03*
X863600Y158750D03*
X863600Y184150D03*
X781050Y133350D03*
X781050Y158750D03*
X781050Y184150D03*
X698500Y133350D03*
X698500Y158750D03*
X698500Y184150D03*
D32*
X342900Y22860D03*
X368300Y22860D03*
X393700Y22860D03*
X419100Y22860D03*
X444500Y22860D03*
D27*
X401320Y57150D03*
X386080Y57150D03*
D13*
X548640Y83210D03*
X548640Y102210D03*
X599440Y102210D03*
X599440Y83210D03*
X574040Y102210D03*
X574040Y83210D03*
X523240Y83210D03*
X523240Y102210D03*
X472440Y102210D03*
X472440Y83210D03*
X497840Y83210D03*
X497840Y102210D03*
D33*
X406400Y243840D02*
X406400Y254000D01*
D34*
X406400Y264160D03*
X406400Y254000D03*
X406400Y243840D03*
D33*
X406400Y215900D02*
X406400Y205740D01*
D34*
X406400Y226060D03*
X406400Y215900D03*
X406400Y205740D03*
D15*
X977900Y711200D03*
X977900Y685800D03*
X977900Y660400D03*
X977900Y635000D03*
D35*
X431800Y273050D03*
X431800Y247650D03*
X431800Y222250D03*
X431800Y196850D03*
X431800Y171450D03*
X431800Y146050D03*
D13*
X571500Y447700D03*
X571500Y466700D03*
D12*
X727050Y419100D03*
X708050Y419100D03*
X727050Y444500D03*
X708050Y444500D03*
X720700Y330200D03*
X701700Y330200D03*
X720700Y304800D03*
X701700Y304800D03*
D36*
X635000Y467725D03*
X635000Y446675D03*
D28*
X819150Y259600D03*
X819150Y324600D03*
X850900Y483350D03*
X850900Y418350D03*
D37*
X66700Y694605D03*
X85700Y694605D03*
X76200Y715095D03*
X168300Y694605D03*
X187300Y694605D03*
X177800Y715095D03*
X269900Y694605D03*
X288900Y694605D03*
X279400Y715095D03*
X574700Y694605D03*
X593700Y694605D03*
X584200Y715095D03*
X473100Y694605D03*
X492100Y694605D03*
X482600Y715095D03*
X371500Y694605D03*
X390500Y694605D03*
X381000Y715095D03*
X676300Y694605D03*
X695300Y694605D03*
X685800Y715095D03*
X777900Y694605D03*
X796900Y694605D03*
X787400Y715095D03*
X879500Y694605D03*
X898500Y694605D03*
X889000Y715095D03*
X352400Y511895D03*
X333400Y511895D03*
X342900Y491405D03*
X403200Y511895D03*
X384200Y511895D03*
X393700Y491405D03*
X98400Y511895D03*
X79400Y511895D03*
X88900Y491405D03*
X149200Y511895D03*
X130200Y511895D03*
X139700Y491405D03*
X200000Y511895D03*
X181000Y511895D03*
X190500Y491405D03*
X250800Y511895D03*
X231800Y511895D03*
X241300Y491405D03*
X301600Y511895D03*
X282600Y511895D03*
X292100Y491405D03*
X206400Y694605D03*
X225400Y694605D03*
X215900Y715095D03*
X308000Y694605D03*
X327000Y694605D03*
X317500Y715095D03*
X409600Y694605D03*
X428600Y694605D03*
X419100Y715095D03*
X511200Y694605D03*
X530200Y694605D03*
X520700Y715095D03*
X612800Y694605D03*
X631800Y694605D03*
X622300Y715095D03*
X714400Y694605D03*
X733400Y694605D03*
X723900Y715095D03*
X816000Y694605D03*
X835000Y694605D03*
X825500Y715095D03*
X917600Y694605D03*
X936600Y694605D03*
X927100Y715095D03*
D38*
X620576Y424300D02*
X614616Y424300D01*
X614616Y429300D02*
X620576Y429300D01*
X620576Y434300D02*
X614616Y434300D01*
X614616Y439300D02*
X620576Y439300D01*
X610750Y443166D02*
X610750Y449126D01*
X605750Y449126D02*
X605750Y443166D01*
X600750Y443166D02*
X600750Y449126D01*
X595750Y449126D02*
X595750Y443166D01*
X591884Y439300D02*
X585924Y439300D01*
X585924Y434300D02*
X591884Y434300D01*
X591884Y429300D02*
X585924Y429300D01*
X585924Y424300D02*
X591884Y424300D01*
X595750Y420434D02*
X595750Y414474D01*
X600750Y414474D02*
X600750Y420434D01*
X605750Y420434D02*
X605750Y414474D01*
X610750Y414474D02*
X610750Y420434D01*
D39*
X603250Y431800D03*
D37*
X104800Y694605D03*
X123800Y694605D03*
X114300Y715095D03*
D40*
X537510Y53340D03*
X511510Y53340D03*
D41*
X518010Y53340D03*
D40*
X524510Y53340D03*
X531010Y53340D03*
D42*
X476810Y15340D03*
X572210Y15340D03*
D27*
X835660Y361950D03*
X850900Y361950D03*
X866140Y361950D03*
D43*
X882650Y264160D03*
X882650Y279400D03*
X882650Y294640D03*
D44*
X727300Y396842D03*
X720800Y396842D03*
X714300Y396842D03*
X707800Y396842D03*
X707800Y352458D03*
X714300Y352458D03*
X720800Y352458D03*
X727300Y352458D03*
D27*
X655320Y406400D03*
X640080Y406400D03*
D45*
X536600Y565150D02*
X528066Y573684D01*
X528066Y576696D01*
X520562Y584200D01*
X513334Y584200D01*
X682600Y584200D02*
X685800Y581000D01*
X682600Y584200D02*
X659384Y584200D01*
D46*
X809600Y603250D02*
X812800Y603250D01*
X838200Y603250D01*
D45*
X718706Y615322D02*
X716028Y612644D01*
X716028Y611228D01*
X811066Y603250D02*
X812800Y603250D01*
X716028Y611228D02*
X685800Y581000D01*
X798994Y615322D02*
X811066Y603250D01*
X798994Y615322D02*
X718706Y615322D01*
X809600Y603250D02*
X838200Y603250D01*
X876300Y565150D01*
X847700Y536550D01*
X847700Y514350D01*
X701700Y284334D02*
X725056Y260978D01*
X817772Y260978D02*
X819150Y259600D01*
X817772Y260978D02*
X725056Y260978D01*
D46*
X582625Y452425D02*
X593750Y463550D01*
X582625Y452425D02*
X577900Y447700D01*
X571500Y447700D01*
X588904Y446146D02*
X588904Y439300D01*
X588904Y446146D02*
X582625Y452425D01*
D45*
X279400Y120650D02*
X260350Y101600D01*
X279400Y120650D02*
X298450Y120650D01*
X299720Y121920D01*
X299720Y146050D01*
D47*
X486600Y395461D02*
X486600Y403763D01*
X498966Y391827D02*
X502600Y395461D01*
X502600Y403763D01*
X490234Y391827D02*
X486600Y395461D01*
X490234Y391827D02*
X495300Y391827D01*
X498966Y391827D01*
D48*
X406400Y146050D03*
X406400Y292100D03*
D47*
X545163Y556587D02*
X536600Y565150D01*
X545163Y556587D02*
X545163Y556019D01*
X548732Y552450D01*
X582827Y552450D02*
X582954Y552323D01*
D48*
X582954Y552323D03*
X633595Y570095D03*
D47*
X647700Y584200D01*
X659384Y584200D01*
X582827Y552450D02*
X548732Y552450D01*
X478600Y334200D02*
X478600Y320137D01*
X478600Y334200D02*
X476250Y336550D01*
D48*
X476250Y336550D03*
X495300Y387350D03*
D47*
X495300Y391827D01*
X431800Y196850D02*
X419100Y184150D01*
X406400Y184150D01*
D48*
X406400Y184150D03*
D47*
X479450Y298450D02*
X478600Y299300D01*
X478600Y320137D01*
X479450Y298450D02*
X463296Y298450D01*
X412750Y298450D01*
X406400Y292100D01*
D46*
X418490Y102210D02*
X472440Y102210D01*
X418490Y102210D02*
X412750Y107950D01*
D48*
X412750Y107950D03*
D46*
X488823Y123333D02*
X492617Y127127D01*
X541551Y102210D02*
X548640Y102210D01*
X488823Y118593D02*
X488823Y123333D01*
X488823Y118593D02*
X472440Y102210D01*
X516634Y127127D02*
X541551Y102210D01*
X516634Y127127D02*
X492617Y127127D01*
X454025Y236848D02*
X455811Y238633D01*
X457733Y238633D01*
X488950Y269850D01*
X431800Y204649D02*
X431800Y196850D01*
X431800Y204649D02*
X454025Y226874D01*
X454025Y236848D01*
D45*
X406400Y146050D02*
X299720Y146050D01*
X406400Y292100D02*
X413512Y299212D01*
X459515Y299212D01*
X459603Y299300D01*
X478600Y299300D01*
D46*
X488950Y269850D02*
X485673Y266573D01*
X463296Y266573D01*
D48*
X463296Y266573D03*
X463296Y298450D03*
D45*
X486600Y403763D02*
X486600Y416750D01*
X488950Y419100D01*
D48*
X488950Y419100D03*
X495300Y577977D03*
D45*
X501523Y584200D01*
X513334Y584200D01*
D46*
X595750Y417454D02*
X595750Y408060D01*
X594273Y406583D01*
D48*
X594273Y406583D03*
X622300Y412877D03*
D46*
X617723Y417454D01*
X610750Y417454D01*
D48*
X577850Y431800D03*
D46*
X580350Y434300D01*
X588904Y434300D01*
X588904Y439300D01*
D48*
X495300Y457200D03*
D45*
X560534Y457200D01*
X562106Y455628D01*
X563572Y455628D01*
X571500Y447700D01*
X577850Y441350D01*
X577850Y431800D01*
D48*
X622300Y399923D03*
D45*
X647573Y374650D01*
X666750Y374650D01*
X717550Y374650D01*
X727372Y384472D01*
D47*
X710263Y339331D02*
X710263Y338763D01*
X701700Y330200D01*
X714300Y343368D02*
X714300Y352458D01*
X714300Y343368D02*
X710263Y339331D01*
X701700Y330200D02*
X701700Y304800D01*
D48*
X666750Y374650D03*
D46*
X457200Y469900D02*
X438150Y450850D01*
X438150Y425577D01*
D48*
X438150Y425577D03*
X454247Y390303D03*
D46*
X457073Y387477D01*
X457073Y378317D01*
D48*
X469900Y374523D03*
D46*
X460867Y374523D01*
X457073Y378317D01*
D47*
X727300Y384544D02*
X727300Y396842D01*
X727300Y384544D02*
X727372Y384472D01*
D45*
X701700Y304800D02*
X701700Y284334D01*
X701700Y304800D02*
X685800Y304800D01*
X679450Y311150D01*
D46*
X76200Y555600D02*
X73050Y552450D01*
X63500Y552450D01*
D48*
X63500Y552450D03*
D46*
X177800Y555600D02*
X177800Y558800D01*
X228600Y555600D02*
X228600Y565023D01*
X234950Y571373D01*
D48*
X234950Y571373D03*
D46*
X381000Y555600D02*
X384200Y555600D01*
X393700Y546100D01*
D48*
X393700Y546100D03*
D46*
X333400Y555600D02*
X330200Y555600D01*
X333400Y555600D02*
X342900Y546100D01*
D48*
X342900Y546100D03*
D46*
X288900Y546100D02*
X279400Y555600D01*
X288900Y546100D02*
X292100Y546100D01*
D48*
X292100Y546100D03*
D46*
X69850Y638200D02*
X57150Y650900D01*
X69850Y638200D02*
X69850Y635000D01*
D48*
X69850Y635000D03*
D46*
X133350Y635000D02*
X133350Y650900D01*
D48*
X133350Y635000D03*
D46*
X580660Y495300D02*
X597916Y495300D01*
X580660Y495300D02*
X579255Y496705D01*
D48*
X579255Y496705D03*
D46*
X451866Y495300D02*
X445516Y488950D01*
X438150Y488950D01*
D48*
X438150Y488950D03*
D46*
X555600Y565150D02*
X565540Y565150D01*
X570366Y560324D01*
D48*
X570366Y560324D03*
D46*
X685800Y562000D02*
X695350Y562000D01*
X698500Y565150D01*
D48*
X698500Y565150D03*
D46*
X720750Y590550D02*
X733450Y603250D01*
X720750Y590550D02*
X711200Y590550D01*
D48*
X711200Y590550D03*
D46*
X86445Y511895D02*
X79400Y511895D01*
X86445Y511895D02*
X88900Y514350D01*
D48*
X88900Y514350D03*
D46*
X130200Y511895D02*
X137245Y511895D01*
X139700Y514350D01*
D48*
X139700Y514350D03*
D46*
X181000Y511895D02*
X188045Y511895D01*
X190500Y514350D01*
D48*
X190500Y514350D03*
D46*
X231800Y511895D02*
X238845Y511895D01*
X241300Y514350D01*
D48*
X241300Y514350D03*
D46*
X282600Y511895D02*
X289645Y511895D01*
X292100Y514350D01*
D48*
X292100Y514350D03*
D46*
X333400Y511895D02*
X340445Y511895D01*
X342900Y514350D01*
D48*
X342900Y514350D03*
D46*
X384200Y511895D02*
X391245Y511895D01*
X393700Y514350D01*
D48*
X393700Y514350D03*
X311150Y285750D03*
X298450Y285750D03*
X285750Y285750D03*
X273050Y285750D03*
X260350Y285750D03*
X247650Y285750D03*
X234950Y285750D03*
X222250Y285750D03*
X209550Y285750D03*
X196850Y285750D03*
X184150Y285750D03*
X171450Y285750D03*
X158750Y285750D03*
X146050Y285750D03*
X133350Y285750D03*
X120650Y285750D03*
X107950Y285750D03*
X95250Y285750D03*
X82550Y285750D03*
X69850Y285750D03*
X57150Y285750D03*
X44450Y285750D03*
X44450Y273050D03*
X44450Y260350D03*
X44450Y247650D03*
X44450Y234950D03*
X44450Y222250D03*
X44450Y209550D03*
X44450Y196850D03*
X44450Y184150D03*
X44450Y171450D03*
X127000Y273050D03*
X127000Y260350D03*
X127000Y247650D03*
X127000Y234950D03*
X127000Y222250D03*
X127000Y209550D03*
X127000Y196850D03*
X127000Y184150D03*
X127000Y171450D03*
X133350Y165100D03*
X146050Y165100D03*
X158750Y165100D03*
X171450Y165100D03*
X209550Y165100D03*
X222250Y165100D03*
X234950Y165100D03*
X247650Y165100D03*
X254000Y171450D03*
X254000Y184150D03*
X254000Y196850D03*
X254000Y209550D03*
X254000Y222250D03*
X254000Y234950D03*
X254000Y247650D03*
X254000Y260350D03*
X254000Y273050D03*
D46*
X720800Y330300D02*
X720800Y352458D01*
X720800Y330300D02*
X720700Y330200D01*
X736600Y330200D01*
D48*
X736600Y330200D03*
D46*
X730250Y314350D02*
X720700Y304800D01*
X730250Y314350D02*
X730250Y317500D01*
D48*
X730250Y317500D03*
D46*
X723900Y282600D02*
X733450Y273050D01*
X723900Y282600D02*
X723900Y285750D01*
D48*
X723900Y285750D03*
D46*
X600750Y446146D02*
X595750Y446146D01*
X610750Y446146D02*
X610750Y441611D01*
X610248Y441109D01*
X610248Y438798D01*
X610750Y446146D02*
X617596Y446146D01*
X622300Y450850D01*
D48*
X622300Y450850D03*
D46*
X635000Y467725D02*
X637175Y469900D01*
X647700Y469900D01*
D48*
X647700Y469900D03*
D46*
X571500Y466700D02*
X568350Y466700D01*
X558800Y476250D01*
D48*
X558800Y476250D03*
D45*
X819150Y324600D02*
X843800Y324600D01*
X844550Y323850D01*
D48*
X844550Y323850D03*
D45*
X819150Y324600D02*
X818400Y323850D01*
X793750Y323850D01*
D48*
X793750Y323850D03*
D46*
X730121Y441429D02*
X727050Y444500D01*
X730121Y441429D02*
X730121Y432061D01*
D48*
X730121Y432061D03*
X323850Y285750D03*
X336550Y285750D03*
X336550Y171450D03*
X336550Y184150D03*
X336550Y196850D03*
X336550Y209550D03*
X336550Y222250D03*
X336550Y234950D03*
X336550Y247650D03*
X336550Y260350D03*
X336550Y273050D03*
D45*
X882650Y264160D02*
X882650Y234950D01*
D48*
X882650Y234950D03*
D46*
X127000Y555600D02*
X127000Y571373D01*
D48*
X127000Y571373D03*
D46*
X177800Y571373D02*
X177800Y555600D01*
D48*
X177800Y571373D03*
D46*
X486600Y334200D02*
X486600Y320137D01*
X486600Y334200D02*
X488950Y336550D01*
D48*
X488950Y336550D03*
D47*
X537510Y53340D02*
X537510Y40340D01*
X539750Y38100D01*
D48*
X539750Y38100D03*
D47*
X537510Y53340D02*
X537510Y62920D01*
X542095Y67505D01*
D48*
X542095Y67505D03*
D46*
X523240Y102210D02*
X508000Y117450D01*
X508000Y120650D01*
D48*
X508000Y120650D03*
D46*
X584200Y117450D02*
X599440Y102210D01*
X584200Y117450D02*
X584200Y120650D01*
D48*
X584200Y120650D03*
D46*
X613061Y424300D02*
X617596Y424300D01*
X613061Y424300D02*
X612559Y424802D01*
X610248Y424802D01*
X603250Y431800D01*
X605750Y429300D02*
X605750Y417454D01*
X605750Y429300D02*
X603250Y431800D01*
X654050Y317500D02*
X654050Y301600D01*
D48*
X654050Y317500D03*
D46*
X654050Y333400D01*
X626990Y424300D02*
X617596Y424300D01*
X626990Y424300D02*
X628467Y422823D01*
D48*
X628467Y422823D03*
D45*
X559308Y184150D02*
X558800Y183642D01*
X559308Y184150D02*
X577850Y184150D01*
D48*
X577850Y184150D03*
D45*
X539750Y269850D02*
X539750Y285750D01*
D48*
X539750Y285750D03*
D46*
X478600Y403763D02*
X478600Y416750D01*
D48*
X450850Y425577D03*
D46*
X460613Y425577D01*
X463825Y422365D02*
X472985Y422365D01*
X463825Y422365D02*
X460613Y425577D01*
X472985Y422365D02*
X478600Y416750D01*
D45*
X57150Y139700D02*
X44450Y152400D01*
X44450Y171450D01*
D46*
X600750Y434300D02*
X600750Y446146D01*
X600750Y434300D02*
X603250Y431800D01*
D47*
X476810Y15340D02*
X467260Y15340D01*
X463550Y19050D01*
D48*
X463550Y19050D03*
D47*
X498450Y298450D02*
X514350Y298450D01*
D48*
X514350Y298450D03*
D47*
X498450Y298450D02*
X489887Y307013D01*
X489887Y307581D01*
X486600Y310868D02*
X486600Y320137D01*
X486600Y310868D02*
X489887Y307581D01*
D45*
X190500Y138938D02*
X190500Y120650D01*
D48*
X190500Y120650D03*
D45*
X75250Y63500D02*
X57150Y63500D01*
D48*
X57150Y63500D03*
X76200Y703734D03*
D46*
X80095Y694605D02*
X85700Y694605D01*
X80095Y694605D02*
X76200Y698500D01*
X76200Y703734D01*
X181695Y694605D02*
X187300Y694605D01*
X181695Y694605D02*
X177800Y698500D01*
X177800Y703734D01*
D48*
X177800Y703734D03*
D46*
X283295Y694605D02*
X288900Y694605D01*
X283295Y694605D02*
X279400Y698500D01*
X279400Y703734D01*
D48*
X279400Y703734D03*
D33*
X384895Y694605D02*
X390500Y694605D01*
X384895Y694605D02*
X381000Y698500D01*
X381000Y703734D01*
D48*
X381000Y703734D03*
D33*
X486495Y694605D02*
X492100Y694605D01*
X486495Y694605D02*
X482600Y698500D01*
X482600Y703734D01*
D48*
X482600Y703734D03*
D33*
X588095Y694605D02*
X593700Y694605D01*
X588095Y694605D02*
X584200Y698500D01*
X584200Y703734D01*
D48*
X584200Y703734D03*
D33*
X689695Y694605D02*
X695300Y694605D01*
X689695Y694605D02*
X685800Y698500D01*
X685800Y703734D01*
D48*
X685800Y703734D03*
D33*
X791295Y694605D02*
X796900Y694605D01*
X791295Y694605D02*
X787400Y698500D01*
X787400Y703734D01*
D48*
X787400Y703734D03*
D33*
X892895Y694605D02*
X898500Y694605D01*
X892895Y694605D02*
X889000Y698500D01*
X889000Y703734D01*
D48*
X889000Y703734D03*
D46*
X336550Y650900D02*
X336550Y635000D01*
D48*
X336550Y635000D03*
D46*
X158750Y650900D02*
X133350Y650900D01*
X234950Y650900D02*
X260350Y650900D01*
X336550Y650900D02*
X361950Y650900D01*
X438150Y650900D02*
X463550Y650900D01*
X539750Y650900D02*
X565150Y650900D01*
X641350Y650900D02*
X666750Y650900D01*
X742950Y650900D02*
X768350Y650900D01*
X844550Y650900D02*
X869950Y650900D01*
X946150Y650900D02*
X946150Y635000D01*
D48*
X946150Y635000D03*
D46*
X844550Y635000D02*
X844550Y650900D01*
D48*
X844550Y635000D03*
D46*
X742950Y635000D02*
X742950Y650900D01*
D48*
X742950Y635000D03*
D46*
X641350Y635000D02*
X641350Y650900D01*
D48*
X641350Y635000D03*
D46*
X539750Y635000D02*
X539750Y650900D01*
D48*
X539750Y635000D03*
D46*
X438150Y635000D02*
X438150Y650900D01*
D48*
X438150Y635000D03*
D46*
X234950Y635000D02*
X234950Y650900D01*
D48*
X234950Y635000D03*
D45*
X572210Y15340D02*
X586840Y15340D01*
X590550Y19050D01*
D48*
X590550Y19050D03*
D46*
X321919Y408432D02*
X328168Y414681D01*
X328168Y423418D01*
X226213Y419100D02*
X165100Y419100D01*
X226213Y419100D02*
X236881Y408432D01*
X321919Y408432D01*
X334518Y429768D02*
X357632Y429768D01*
X368300Y419100D01*
X334518Y429768D02*
X328168Y423418D01*
X462600Y413700D02*
X462600Y403763D01*
X462600Y413700D02*
X457200Y419100D01*
X368300Y419100D01*
X342900Y419100D02*
X338334Y419100D01*
X150013Y419100D02*
X139700Y419100D01*
X323602Y404368D02*
X338334Y419100D01*
X323602Y404368D02*
X164745Y404368D01*
X150013Y419100D01*
X358237Y403763D02*
X454600Y403763D01*
X358237Y403763D02*
X342900Y419100D01*
X317500Y419100D02*
X307187Y419100D01*
X296519Y429768D01*
X124968Y429768D02*
X114300Y419100D01*
X124968Y429768D02*
X296519Y429768D01*
X321250Y389950D02*
X440787Y389950D01*
X321250Y389950D02*
X317500Y393700D01*
D48*
X317500Y393700D03*
D46*
X338481Y347218D02*
X347319Y347218D01*
X357987Y336550D02*
X368300Y336550D01*
X357987Y336550D02*
X347319Y347218D01*
X328168Y336905D02*
X328168Y332131D01*
X321919Y325882D01*
X226213Y336550D02*
X165100Y336550D01*
X226213Y336550D02*
X236881Y325882D01*
X321919Y325882D01*
X328168Y336905D02*
X338481Y347218D01*
X439837Y381000D02*
X440787Y381950D01*
X439837Y381000D02*
X368300Y381000D01*
D48*
X368300Y381000D03*
D46*
X146050Y336550D02*
X139700Y336550D01*
X160782Y321818D02*
X328168Y321818D01*
X342900Y336550D01*
X160782Y321818D02*
X146050Y336550D01*
X344423Y373950D02*
X440787Y373950D01*
X344423Y373950D02*
X344423Y374777D01*
D48*
X344423Y374777D03*
D46*
X124613Y336550D02*
X114300Y336550D01*
X307187Y336550D02*
X317500Y336550D01*
X135281Y347218D02*
X124613Y336550D01*
X296519Y347218D02*
X307187Y336550D01*
X296519Y347218D02*
X135281Y347218D01*
X427800Y365950D02*
X440787Y365950D01*
X427800Y365950D02*
X425450Y368300D01*
X319405Y368300D01*
X317500Y370205D01*
D48*
X317500Y370205D03*
D46*
X385987Y333950D02*
X440787Y333950D01*
X99213Y336550D02*
X88900Y336550D01*
X99213Y336550D02*
X113945Y351282D01*
X368655Y351282D01*
X385987Y333950D01*
X454600Y320137D02*
X454600Y312614D01*
X450850Y308864D01*
X91186Y308864D01*
X63500Y336550D01*
X38100Y336550D02*
X69850Y304800D01*
X457200Y304800D02*
X462600Y310200D01*
X462600Y320137D01*
X457200Y304800D02*
X69850Y304800D01*
X509600Y333950D02*
X524413Y333950D01*
X294259Y355600D02*
X292100Y357759D01*
D48*
X292100Y357759D03*
X408432Y340427D03*
D46*
X385257Y340427D01*
X370338Y355346D01*
X368554Y355346D01*
X368300Y355600D01*
X294259Y355600D01*
X468249Y350599D02*
X470662Y353012D01*
D48*
X468249Y350599D03*
D46*
X490538Y353012D02*
X509600Y333950D01*
X490538Y353012D02*
X470662Y353012D01*
D48*
X454247Y365300D03*
D46*
X507347Y341950D02*
X524413Y341950D01*
D48*
X404368Y349250D03*
D46*
X382182Y349250D01*
X294783Y364236D02*
X289417Y364236D01*
X294783Y364236D02*
X299355Y359664D01*
X289417Y364236D02*
X280781Y355600D01*
X371768Y359664D02*
X382182Y349250D01*
X371768Y359664D02*
X299355Y359664D01*
X268859Y355600D02*
X266700Y357759D01*
D48*
X266700Y357759D03*
D46*
X268859Y355600D02*
X280781Y355600D01*
X462471Y357076D02*
X492221Y357076D01*
X507347Y341950D01*
X462471Y357076D02*
X454247Y365300D01*
D48*
X465153Y363553D03*
D46*
X508000Y349950D02*
X524413Y349950D01*
D48*
X404999Y361823D03*
D46*
X375356Y361823D01*
X373451Y363728D01*
D48*
X241300Y368300D03*
D46*
X296466Y368300D02*
X301038Y363728D01*
X296466Y368300D02*
X241300Y368300D01*
X301038Y363728D02*
X373451Y363728D01*
X465153Y363553D02*
X494397Y363553D01*
X508000Y349950D01*
X850900Y562096D02*
X850900Y565150D01*
X784104Y495300D02*
X659384Y495300D01*
X784104Y495300D02*
X850900Y562096D01*
D48*
X222250Y590804D03*
D46*
X222504Y590550D01*
D48*
X215900Y571373D03*
D46*
X203200Y558673D01*
X203200Y555600D01*
X222504Y590550D02*
X463289Y590550D01*
X482339Y571500D01*
X513334Y571500D01*
D48*
X158750Y584327D03*
D46*
X374696Y584200D02*
X451866Y584200D01*
X374696Y584200D02*
X372666Y586230D01*
X363934Y586230D01*
X362031Y584327D01*
X158750Y584327D01*
D48*
X158750Y571373D03*
D46*
X158750Y561950D01*
X152400Y555600D01*
X101600Y555600D02*
X101600Y565150D01*
X98625Y568125D01*
X98225Y568125D01*
D48*
X98225Y568125D03*
X107950Y577850D03*
D46*
X365617Y582166D02*
X370983Y582166D01*
X361301Y577850D02*
X107950Y577850D01*
X361301Y577850D02*
X365617Y582166D01*
X370983Y582166D02*
X375299Y577850D01*
X419703Y577850D02*
X426053Y571500D01*
X451866Y571500D01*
X419703Y577850D02*
X375299Y577850D01*
X412884Y549116D02*
X412884Y548862D01*
X412884Y549116D02*
X406400Y555600D01*
X416948Y544798D02*
X416948Y529202D01*
X431800Y514350D01*
X416948Y544798D02*
X412884Y548862D01*
X451866Y558800D02*
X463550Y558800D01*
X469900Y552450D01*
X469900Y520962D01*
X463289Y514350D01*
X431800Y514350D01*
X368300Y573276D02*
X368300Y575689D01*
D48*
X368300Y575689D03*
X368039Y558671D03*
D46*
X358671Y558671D01*
X355600Y555600D01*
X431800Y546100D02*
X451866Y546100D01*
X431800Y546100D02*
X429140Y548760D01*
X429140Y562665D01*
X418529Y573276D01*
X368300Y573276D01*
X261090Y555600D02*
X254000Y555600D01*
X274702Y569212D02*
X416846Y569212D01*
X274702Y569212D02*
X261090Y555600D01*
X431800Y533400D02*
X451866Y533400D01*
X431800Y533400D02*
X425076Y540124D01*
X425076Y560982D01*
X416846Y569212D01*
X311890Y555600D02*
X304800Y555600D01*
X311890Y555600D02*
X321438Y565148D01*
X415163Y565148D01*
X431800Y520700D02*
X451866Y520700D01*
X431800Y520700D02*
X421012Y531488D01*
X421012Y559299D01*
X415163Y565148D01*
X597916Y584200D02*
X597916Y607282D01*
X583152Y622046D02*
X285750Y622046D01*
D48*
X285750Y622046D03*
X285750Y635000D03*
D46*
X285750Y650900D01*
X583152Y622046D02*
X597916Y607282D01*
X597916Y571500D02*
X584200Y571500D01*
X577850Y577850D01*
X577850Y609600D01*
X569468Y617982D01*
X389763Y617982D02*
X387350Y615569D01*
D48*
X387350Y615569D03*
X387350Y635000D03*
D46*
X387350Y650900D01*
X389763Y617982D02*
X569468Y617982D01*
X584200Y558800D02*
X597916Y558800D01*
X584200Y558800D02*
X571500Y571500D01*
X571500Y609600D01*
X569595Y611505D01*
X488950Y611505D01*
D48*
X488950Y611505D03*
X488950Y635000D03*
D46*
X488950Y650900D01*
X597916Y546100D02*
X609600Y546100D01*
X614172Y550672D01*
X614172Y617728D02*
X590550Y641350D01*
X590550Y650900D01*
X614172Y617728D02*
X614172Y550672D01*
X615950Y533400D02*
X597916Y533400D01*
X615950Y533400D02*
X618236Y535686D01*
X618236Y575391D02*
X665948Y623102D01*
X618236Y575391D02*
X618236Y535686D01*
X671883Y629038D02*
X679450Y629038D01*
X671883Y629038D02*
X665948Y623102D01*
X679450Y629038D02*
X692150Y641738D01*
X692150Y650900D01*
X673567Y624974D02*
X622300Y573707D01*
X622300Y527050D01*
X615950Y520700D01*
X597916Y520700D01*
X793750Y641350D02*
X793750Y650900D01*
X777374Y624974D02*
X673567Y624974D01*
X777374Y624974D02*
X793750Y641350D01*
X451866Y508000D02*
X425577Y508000D01*
X412877Y520700D01*
D48*
X412877Y520700D03*
X412750Y597027D03*
D46*
X225187Y597027D01*
X224933Y597281D01*
X136169Y597281D02*
X82550Y650900D01*
X136169Y597281D02*
X224933Y597281D01*
X597916Y508000D02*
X616894Y508000D01*
X626364Y517470D02*
X626364Y572024D01*
X675250Y620910D01*
X874910Y620910D01*
X895350Y641350D02*
X895350Y650900D01*
X626364Y517470D02*
X616894Y508000D01*
X874910Y620910D02*
X895350Y641350D01*
D47*
X292100Y844550D02*
X190500Y844550D01*
X292100Y844550D02*
X393700Y844550D01*
X495300Y844550D01*
X596900Y844550D01*
X698500Y844550D01*
X800100Y844550D02*
X901700Y844550D01*
X800100Y844550D02*
X698500Y844550D01*
X173721Y473871D02*
X79849Y473871D01*
X32258Y787908D02*
X88900Y844550D01*
X32258Y521462D02*
X79849Y473871D01*
X32258Y521462D02*
X32258Y787908D01*
X88900Y844550D02*
X190500Y844550D01*
X190500Y490650D02*
X173721Y473871D01*
X190500Y490650D02*
X190500Y491405D01*
X800100Y819150D02*
X901700Y819150D01*
X800100Y819150D02*
X698500Y819150D01*
X596900Y819150D01*
X495300Y819150D02*
X393700Y819150D01*
X292100Y819150D01*
X190500Y819150D01*
X95531Y479713D02*
X82550Y479713D01*
X95531Y479713D02*
X107223Y491405D01*
X38100Y768350D02*
X88900Y819150D01*
X495300Y819150D02*
X596900Y819150D01*
X190500Y819150D02*
X88900Y819150D01*
X107223Y491405D02*
X139700Y491405D01*
X82550Y479713D02*
X38100Y524163D01*
X38100Y768350D01*
X190500Y793750D02*
X292100Y793750D01*
X393700Y793750D01*
X495300Y793750D01*
X596900Y793750D01*
X698500Y793750D01*
X800100Y793750D01*
X901700Y793750D01*
X88900Y793750D02*
X45713Y750563D01*
X88900Y793750D02*
X190500Y793750D01*
X88900Y491405D02*
X80095Y491405D01*
X45713Y525787D02*
X45713Y750563D01*
X45713Y525787D02*
X80095Y491405D01*
X68900Y450503D02*
X8890Y510513D01*
X88900Y944714D02*
X88900Y946150D01*
X8890Y864704D02*
X8890Y510513D01*
X8890Y864704D02*
X88900Y944714D01*
X68900Y450503D02*
X353553Y450503D01*
X495300Y946150D02*
X596900Y946150D01*
X495300Y946150D02*
X393700Y946150D01*
X292100Y946150D01*
X190500Y946150D01*
X88900Y946150D01*
X800100Y946150D02*
X901700Y946150D01*
X800100Y946150D02*
X698500Y946150D01*
X596900Y946150D01*
X393700Y490650D02*
X353553Y450503D01*
X393700Y490650D02*
X393700Y491405D01*
X14732Y846582D02*
X88900Y920750D01*
X14732Y512932D02*
X71319Y456345D01*
X14732Y512932D02*
X14732Y846582D01*
X71319Y456345D02*
X308595Y456345D01*
X495300Y920750D02*
X596900Y920750D01*
X495300Y920750D02*
X393700Y920750D01*
X292100Y920750D01*
X190500Y920750D01*
X88900Y920750D01*
X800100Y920750D02*
X901700Y920750D01*
X800100Y920750D02*
X698500Y920750D01*
X596900Y920750D01*
X342900Y490650D02*
X308595Y456345D01*
X342900Y490650D02*
X342900Y491405D01*
X800100Y869950D02*
X901700Y869950D01*
X800100Y869950D02*
X698500Y869950D01*
X596900Y869950D01*
X495300Y869950D01*
X393700Y869950D01*
X292100Y869950D01*
X190500Y869950D01*
X88900Y869950D02*
X88900Y868514D01*
X26416Y806030D01*
X26416Y517772D01*
X76159Y468029D01*
X218679Y468029D01*
X190500Y869950D02*
X88900Y869950D01*
X241300Y490650D02*
X218679Y468029D01*
X241300Y490650D02*
X241300Y491405D01*
X190500Y895350D02*
X292100Y895350D01*
X393700Y895350D01*
X495300Y895350D01*
X596900Y895350D01*
X698500Y895350D01*
X800100Y895350D01*
X901700Y895350D01*
X73739Y462187D02*
X20574Y515352D01*
X88900Y893914D02*
X88900Y895350D01*
X20574Y825588D02*
X20574Y515352D01*
X20574Y825588D02*
X88900Y893914D01*
X73739Y462187D02*
X263637Y462187D01*
X190500Y895350D02*
X90336Y895350D01*
X88900Y893914D01*
X292100Y490650D02*
X263637Y462187D01*
X292100Y490650D02*
X292100Y491405D01*
X114300Y715095D02*
X88900Y740495D01*
X88900Y768350D01*
D33*
X114300Y688950D02*
X133350Y669900D01*
X114300Y688950D02*
X114300Y715095D01*
D47*
X190500Y740495D02*
X215900Y715095D01*
X190500Y740495D02*
X190500Y768350D01*
D33*
X215900Y688950D02*
X234950Y669900D01*
X215900Y688950D02*
X215900Y715095D01*
D47*
X292100Y740495D02*
X317500Y715095D01*
X292100Y740495D02*
X292100Y768350D01*
D46*
X317500Y688950D02*
X336550Y669900D01*
X317500Y688950D02*
X317500Y715095D01*
D47*
X393700Y740495D02*
X419100Y715095D01*
X393700Y740495D02*
X393700Y768350D01*
D46*
X419100Y688950D02*
X438150Y669900D01*
X419100Y688950D02*
X419100Y715095D01*
D47*
X495300Y740495D02*
X520700Y715095D01*
X495300Y740495D02*
X495300Y768350D01*
D46*
X520700Y715095D02*
X520700Y688950D01*
X539750Y669900D01*
D47*
X901700Y740495D02*
X927100Y715095D01*
X901700Y740495D02*
X901700Y768350D01*
D46*
X927100Y688950D02*
X946150Y669900D01*
X927100Y688950D02*
X927100Y715095D01*
D47*
X723900Y715095D02*
X698500Y740495D01*
X698500Y768350D01*
D46*
X723900Y688950D02*
X742950Y669900D01*
X723900Y688950D02*
X723900Y715095D01*
D47*
X622300Y715095D02*
X596900Y740495D01*
X596900Y768350D01*
D46*
X622300Y688950D02*
X641350Y669900D01*
X622300Y688950D02*
X622300Y715095D01*
D47*
X800100Y740495D02*
X825500Y715095D01*
X800100Y740495D02*
X800100Y768350D01*
D46*
X825500Y688950D02*
X844550Y669900D01*
X825500Y688950D02*
X825500Y715095D01*
X659384Y571500D02*
X647572Y571500D01*
X641349Y565277D01*
D48*
X641349Y565277D03*
X607695Y603250D03*
D46*
X225790Y635000D02*
X190500Y635000D01*
X225790Y635000D02*
X232267Y628523D01*
X582422Y628523D02*
X607695Y603250D01*
X582422Y628523D02*
X232267Y628523D01*
X190500Y635000D02*
X184150Y641350D01*
X184150Y650900D01*
X513334Y520700D02*
X534605Y520700D01*
X574483Y480822D02*
X612705Y480822D01*
X574483Y480822D02*
X534605Y520700D01*
X652583Y520700D02*
X659384Y520700D01*
X652583Y520700D02*
X612705Y480822D01*
X822807Y565150D02*
X825500Y565150D01*
X778357Y520700D02*
X659384Y520700D01*
X778357Y520700D02*
X822807Y565150D01*
X546876Y403763D02*
X510600Y403763D01*
X546876Y403763D02*
X549767Y406654D01*
X555133Y406654D01*
X555387Y406400D01*
X565150Y406400D01*
X571500Y412750D01*
X581556Y422806D01*
X581556Y426109D01*
X584747Y429300D01*
X588904Y429300D01*
X482600Y444500D02*
X482600Y454095D01*
X493776Y465271D01*
X493776Y512826D01*
X501650Y520700D02*
X513334Y520700D01*
X501650Y520700D02*
X493776Y512826D01*
X482600Y444500D02*
X489712Y437388D01*
X492650Y437388D01*
X500651Y429387D01*
X528431Y429387D02*
X530844Y431800D01*
X552450Y431800D01*
X571500Y412750D01*
X528431Y429387D02*
X500651Y429387D01*
X576167Y484886D02*
X611022Y484886D01*
X638556Y512420D01*
X638556Y530606D01*
X641350Y533400D01*
X659384Y533400D01*
X768350Y533400D01*
X800100Y565150D01*
X828700Y530250D02*
X828700Y514350D01*
X828700Y530250D02*
X831850Y533400D01*
D48*
X831850Y533400D03*
D46*
X576167Y484886D02*
X552839Y508214D01*
X524413Y357950D02*
X512000Y357950D01*
X508000Y361950D01*
D48*
X508000Y361950D03*
X531995Y531995D03*
D46*
X530590Y533400D01*
X513334Y533400D01*
X552839Y511151D02*
X552839Y508214D01*
X552839Y511151D02*
X531995Y531995D01*
X836168Y553111D02*
X836168Y577189D01*
X829919Y583438D01*
X774700Y568807D02*
X774700Y565150D01*
X774700Y568807D02*
X789331Y583438D01*
X836168Y553111D02*
X791057Y508000D01*
X789331Y583438D02*
X829919Y583438D01*
X791057Y508000D02*
X659384Y508000D01*
X789331Y601981D02*
X790600Y603250D01*
X789331Y601981D02*
X789331Y583438D01*
X533400Y508000D02*
X513334Y508000D01*
X533400Y508000D02*
X541558Y508000D01*
X572800Y476758D01*
X645631Y508000D02*
X659384Y508000D01*
X614389Y476758D02*
X572800Y476758D01*
X614389Y476758D02*
X645631Y508000D01*
X533400Y508000D02*
X533400Y501777D01*
D48*
X533400Y501777D03*
D46*
X470600Y403763D02*
X470600Y393000D01*
X476250Y387350D01*
D48*
X476250Y387350D03*
D46*
X542306Y418846D02*
X546100Y422640D01*
D48*
X546100Y422640D03*
X501904Y418846D03*
D46*
X542306Y418846D01*
X659384Y546100D02*
X730250Y546100D01*
X749300Y565150D01*
X755650Y600050D02*
X752450Y603250D01*
X755650Y600050D02*
X755650Y571500D01*
X749300Y565150D01*
X634492Y514104D02*
X609339Y488950D01*
X527050Y546100D02*
X513334Y546100D01*
X634492Y539242D02*
X634492Y514104D01*
X634492Y539242D02*
X641350Y546100D01*
X609339Y488950D02*
X577850Y488950D01*
X641350Y546100D02*
X659384Y546100D01*
X556903Y516247D02*
X527050Y546100D01*
X556903Y516247D02*
X556903Y509897D01*
X577850Y488950D01*
D48*
X473292Y428842D03*
D46*
X495427Y421783D02*
X495427Y416417D01*
X495427Y421783D02*
X491633Y425577D01*
X495427Y416417D02*
X494600Y415590D01*
X476558Y425577D02*
X473292Y428842D01*
X494600Y415590D02*
X494600Y403763D01*
X491633Y425577D02*
X476558Y425577D01*
D48*
X487299Y527050D03*
D46*
X506349Y546100D01*
X513334Y546100D01*
X609600Y269240D02*
X640690Y269240D01*
X609600Y269240D02*
X569750Y309090D01*
X506602Y309090D02*
X502600Y313092D01*
X502600Y320137D01*
X506602Y309090D02*
X569750Y309090D01*
X640690Y269240D02*
X654050Y282600D01*
X563977Y320137D02*
X510600Y320137D01*
X563977Y320137D02*
X609600Y365760D01*
X640690Y365760D01*
X654050Y352400D01*
X640080Y406400D02*
X640080Y420370D01*
X631150Y429300D02*
X617596Y429300D01*
X631150Y429300D02*
X640080Y420370D01*
X556450Y365950D02*
X524413Y365950D01*
X556450Y365950D02*
X584200Y393700D01*
X596908Y393700D01*
X609608Y406400D01*
X640080Y406400D01*
X543510Y381950D02*
X524413Y381950D01*
X543510Y381950D02*
X546370Y384810D01*
D48*
X546370Y384810D03*
X552450Y400177D03*
D46*
X571627Y400177D01*
X588904Y417454D02*
X588904Y424300D01*
X588904Y417454D02*
X571627Y400177D01*
X473964Y537464D02*
X495300Y558800D01*
X513334Y558800D01*
X469900Y482600D02*
X482600Y469900D01*
X469900Y515214D02*
X473964Y519278D01*
X473964Y537464D01*
X469900Y515214D02*
X469900Y482600D01*
X452571Y455676D02*
X446024Y449129D01*
X446024Y439871D01*
X468376Y455676D02*
X482600Y469900D01*
X468376Y455676D02*
X452571Y455676D01*
D48*
X463550Y381000D03*
D46*
X497983Y380873D02*
X499060Y381950D01*
X524413Y381950D01*
X473440Y381000D02*
X463550Y381000D01*
X473440Y381000D02*
X473567Y380873D01*
X497983Y380873D01*
X462026Y433324D02*
X452571Y433324D01*
D48*
X463634Y431716D03*
D46*
X452571Y433324D02*
X446024Y439871D01*
X462026Y433324D02*
X463634Y431716D01*
X524413Y389950D02*
X542350Y389950D01*
X546100Y393700D01*
D48*
X546100Y393700D03*
D46*
X600750Y403900D02*
X600750Y417454D01*
X600750Y403900D02*
X594614Y397764D01*
X582517Y397764D02*
X578453Y393700D01*
X546100Y393700D01*
X582517Y397764D02*
X594614Y397764D01*
X466795Y444500D02*
X457200Y444500D01*
X466795Y444500D02*
X477971Y433324D01*
X498967Y425323D02*
X533527Y425323D01*
X498967Y425323D02*
X490966Y433324D01*
X477971Y433324D01*
D48*
X533527Y425323D03*
D46*
X605750Y456550D02*
X612750Y463550D01*
X605750Y456550D02*
X605750Y453716D01*
X605750Y446146D01*
D48*
X605750Y453716D03*
D46*
X551877Y373950D02*
X524413Y373950D01*
X551877Y373950D02*
X565150Y387223D01*
D48*
X565150Y387223D03*
D46*
X440787Y357950D02*
X425707Y357950D01*
X425450Y358207D01*
D48*
X425450Y358207D03*
D46*
X539750Y247650D02*
X558800Y228600D01*
X539750Y247650D02*
X539750Y250850D01*
X527050Y250850D01*
X514350Y250850D01*
X488950Y250850D01*
X479323Y250850D01*
X469773Y241300D01*
D48*
X469773Y241300D03*
X458470Y336550D03*
D46*
X458470Y342900D01*
X458470Y354330D01*
X454850Y357950D02*
X440787Y357950D01*
X454850Y357950D02*
X458470Y354330D01*
D48*
X389382Y285750D03*
D46*
X403590Y285750D01*
X403717Y285623D01*
X409083Y285623D01*
X409210Y285750D01*
X520700Y285750D01*
X527050Y279400D01*
X527050Y250850D01*
D48*
X487855Y346535D03*
D46*
X484346Y343027D01*
X464677Y343027D02*
X464550Y342900D01*
X458470Y342900D01*
X464677Y343027D02*
X484346Y343027D01*
X440787Y349950D02*
X440154Y349317D01*
X425450Y349317D01*
D48*
X425450Y349317D03*
D46*
X415417Y264160D02*
X406400Y264160D01*
X415417Y264160D02*
X419100Y260477D01*
D48*
X419100Y260477D03*
X419100Y209423D03*
X393446Y266700D03*
D46*
X395986Y264160D02*
X406400Y264160D01*
X395986Y264160D02*
X393446Y266700D01*
X406400Y205740D02*
X415417Y205740D01*
X419100Y209423D01*
X426973Y341950D02*
X440787Y341950D01*
X426973Y341950D02*
X425450Y340427D01*
D48*
X425450Y340427D03*
D46*
X406400Y243840D02*
X406400Y226060D01*
D48*
X393700Y247650D03*
D46*
X397510Y243840D02*
X402082Y243840D01*
X406400Y243840D01*
X397510Y243840D02*
X393700Y247650D01*
X431800Y273050D02*
X473840Y273050D01*
X480188Y279398D01*
X504802Y279398D02*
X514350Y269850D01*
X504802Y279398D02*
X480188Y279398D01*
D45*
X156464Y138938D02*
X108712Y138938D01*
X107950Y139700D01*
X698500Y63500D02*
X698500Y38100D01*
X698500Y63500D02*
X781050Y63500D01*
X863600Y63500D01*
X946150Y63500D01*
X946150Y38100D01*
X863600Y38100D02*
X863600Y63500D01*
X781050Y63500D02*
X781050Y38100D01*
X386080Y57150D02*
X386080Y74930D01*
X387350Y76200D01*
D48*
X387350Y76200D03*
D45*
X44450Y95250D02*
X6350Y133350D01*
X359516Y57150D02*
X386080Y57150D01*
X359516Y57150D02*
X348086Y45720D01*
X290830Y45720D01*
X260350Y76200D01*
X107950Y101600D02*
X107950Y139700D01*
X107950Y101600D02*
X101600Y95250D01*
X44450Y95250D01*
X264160Y19050D02*
X290830Y45720D01*
X264160Y19050D02*
X57150Y19050D01*
X44450Y31750D01*
X44450Y95250D01*
X82550Y183400D02*
X102350Y183400D01*
X108712Y177038D02*
X108712Y138938D01*
X108712Y177038D02*
X102350Y183400D01*
D33*
X107950Y669900D02*
X107950Y677393D01*
X111785Y681228D01*
D48*
X111785Y681228D03*
D33*
X123800Y694605D02*
X130895Y694605D01*
X133350Y692150D01*
X133350Y685800D01*
D48*
X133350Y685800D03*
D33*
X209550Y679051D02*
X209550Y669900D01*
X209550Y679051D02*
X212556Y682057D01*
D48*
X212556Y682057D03*
D33*
X225400Y694605D02*
X234205Y685800D01*
X234950Y685800D01*
D48*
X234950Y685800D03*
D33*
X311150Y677752D02*
X311150Y669900D01*
X311150Y677752D02*
X314985Y681587D01*
D48*
X314985Y681587D03*
D33*
X412750Y677752D02*
X412750Y669900D01*
X412750Y677752D02*
X416585Y681587D01*
D48*
X416585Y681587D03*
D33*
X428600Y694605D02*
X435695Y694605D01*
X438150Y692150D01*
X438150Y685800D01*
D48*
X438150Y685800D03*
D33*
X334095Y694605D02*
X327000Y694605D01*
X334095Y694605D02*
X336550Y692150D01*
X336550Y685800D01*
D48*
X336550Y685800D03*
D33*
X514350Y677752D02*
X514350Y669900D01*
X514350Y677752D02*
X518185Y681587D01*
D48*
X518185Y681587D03*
D33*
X530200Y694605D02*
X537295Y694605D01*
X539750Y692150D01*
X539750Y685800D01*
D48*
X539750Y685800D03*
D33*
X615950Y679051D02*
X615950Y669900D01*
X615950Y679051D02*
X619136Y682236D01*
D48*
X619136Y682236D03*
D33*
X631800Y694605D02*
X638895Y694605D01*
X641350Y692150D01*
X641350Y685800D01*
D48*
X641350Y685800D03*
D33*
X717550Y679051D02*
X717550Y669900D01*
X717550Y679051D02*
X720736Y682236D01*
D48*
X720736Y682236D03*
D33*
X733400Y694605D02*
X740495Y694605D01*
X742950Y692150D01*
X742950Y685800D01*
D48*
X742950Y685800D03*
D33*
X819150Y679450D02*
X819150Y669900D01*
X819150Y679450D02*
X822136Y682436D01*
D48*
X822136Y682436D03*
D33*
X835000Y694605D02*
X842095Y694605D01*
X844550Y692150D01*
X844550Y685800D01*
D48*
X844550Y685800D03*
D33*
X920750Y679051D02*
X920750Y669900D01*
X920750Y679051D02*
X923936Y682236D01*
D48*
X923936Y682236D03*
D33*
X936600Y694605D02*
X943695Y694605D01*
X946150Y692150D01*
X946150Y685800D01*
D48*
X946150Y685800D03*
X25400Y482600D03*
X57150Y527050D03*
X57150Y635000D03*
D45*
X57150Y546766D02*
X57150Y527050D01*
X57150Y546766D02*
X54991Y548925D01*
X54991Y555975D01*
X57150Y558134D01*
X57150Y635000D01*
X25400Y482600D02*
X6350Y463550D01*
X6350Y133350D01*
D46*
X177800Y536600D02*
X203200Y536600D01*
X203200Y515095D01*
X200000Y511895D01*
X152400Y536600D02*
X127000Y536600D01*
X152400Y536600D02*
X152400Y515095D01*
X149200Y511895D01*
X101600Y536600D02*
X76200Y536600D01*
X101600Y536600D02*
X101600Y515095D01*
X98400Y511895D01*
X381000Y536600D02*
X406400Y536600D01*
X406400Y515095D02*
X403200Y511895D01*
X406400Y515095D02*
X406400Y536600D01*
X355600Y536600D02*
X330200Y536600D01*
X352400Y511895D02*
X355600Y515095D01*
X355600Y536600D01*
X254000Y536600D02*
X228600Y536600D01*
X250800Y511895D02*
X254000Y515095D01*
X254000Y536600D01*
X279400Y536600D02*
X304800Y536600D01*
X304800Y515095D02*
X301600Y511895D01*
X304800Y515095D02*
X304800Y536600D01*
X82550Y669900D02*
X57150Y669900D01*
X66700Y679450D01*
X66700Y694605D01*
D33*
X158750Y669900D02*
X168300Y679450D01*
X168300Y694605D01*
X158750Y669900D02*
X184150Y669900D01*
D46*
X260350Y669900D02*
X285750Y669900D01*
X269900Y679450D02*
X260350Y669900D01*
X269900Y679450D02*
X269900Y694605D01*
X361950Y669900D02*
X387350Y669900D01*
X371500Y679450D02*
X361950Y669900D01*
X371500Y679450D02*
X371500Y694605D01*
X463550Y669900D02*
X488950Y669900D01*
X473100Y679450D02*
X463550Y669900D01*
X473100Y679450D02*
X473100Y694605D01*
X565150Y669900D02*
X590550Y669900D01*
X574700Y679450D02*
X565150Y669900D01*
X574700Y679450D02*
X574700Y694605D01*
X666750Y669900D02*
X692150Y669900D01*
X676300Y679450D02*
X666750Y669900D01*
X676300Y679450D02*
X676300Y694605D01*
X777900Y694605D02*
X777900Y679450D01*
X768350Y669900D01*
X793750Y669900D01*
X869950Y669900D02*
X895350Y669900D01*
X879500Y679450D02*
X869950Y669900D01*
X879500Y679450D02*
X879500Y694605D01*
D47*
X752450Y307950D02*
X752450Y273050D01*
X752450Y307950D02*
X755650Y311150D01*
D46*
X683495Y453785D02*
X681275Y453785D01*
X732661Y457200D02*
X736598Y453263D01*
X736598Y428648D01*
X727050Y419100D01*
X686910Y457200D02*
X683495Y453785D01*
X686910Y457200D02*
X732661Y457200D01*
X727050Y419100D02*
X744714Y401436D01*
X744714Y368236D01*
D48*
X744714Y368236D03*
D46*
X661790Y434300D02*
X681275Y453785D01*
X661790Y434300D02*
X617596Y434300D01*
X655320Y406400D02*
X661790Y412870D01*
X661790Y434300D01*
X889000Y715095D02*
X897805Y715095D01*
X908050Y704850D02*
X908050Y698500D01*
X911945Y694605D01*
X917600Y694605D01*
X908050Y704850D02*
X897805Y715095D01*
X911200Y650900D02*
X920750Y650900D01*
X911200Y650900D02*
X908050Y654050D01*
X917600Y685779D02*
X917600Y694605D01*
X917600Y685779D02*
X908050Y676229D01*
X908050Y654050D01*
X796205Y715095D02*
X787400Y715095D01*
X806450Y704850D02*
X806450Y698500D01*
X810345Y694605D01*
X816000Y694605D01*
X806450Y704850D02*
X796205Y715095D01*
X809600Y650900D02*
X819150Y650900D01*
X809600Y650900D02*
X806450Y654050D01*
X816000Y686178D02*
X816000Y694605D01*
X816000Y686178D02*
X806450Y676628D01*
X806450Y654050D01*
X717550Y650900D02*
X708000Y650900D01*
X704850Y654050D01*
X714400Y685779D02*
X714400Y694605D01*
X714400Y685779D02*
X704850Y676229D01*
X704850Y654050D01*
X694605Y715095D02*
X685800Y715095D01*
X704850Y704850D02*
X704850Y698500D01*
X708745Y694605D01*
X714400Y694605D01*
X704850Y704850D02*
X694605Y715095D01*
X389805Y715095D02*
X381000Y715095D01*
X400050Y704850D02*
X400050Y698500D01*
X403945Y694605D01*
X409600Y694605D01*
X400050Y704850D02*
X389805Y715095D01*
X403200Y650900D02*
X412750Y650900D01*
X403200Y650900D02*
X400050Y654050D01*
X403777Y679956D02*
X406400Y679956D01*
X400050Y676229D02*
X400050Y654050D01*
X400050Y676229D02*
X403777Y679956D01*
X406400Y679956D02*
X409600Y683156D01*
X409600Y694605D01*
X511200Y694605D02*
X511200Y683156D01*
X508000Y679956D01*
X505377Y679956D01*
X501650Y676229D01*
X501650Y654050D02*
X504800Y650900D01*
X514350Y650900D01*
X501650Y654050D02*
X501650Y676229D01*
X505545Y694605D02*
X511200Y694605D01*
X505545Y694605D02*
X501650Y698500D01*
X491405Y715095D02*
X482600Y715095D01*
X501650Y704850D02*
X501650Y698500D01*
X501650Y704850D02*
X491405Y715095D01*
X606400Y650900D02*
X615950Y650900D01*
X606400Y650900D02*
X603250Y654050D01*
X612800Y685779D02*
X612800Y694605D01*
X612800Y685779D02*
X603250Y676229D01*
X603250Y654050D01*
X593005Y715095D02*
X584200Y715095D01*
X603250Y704850D02*
X603250Y698500D01*
X607145Y694605D01*
X612800Y694605D01*
X603250Y704850D02*
X593005Y715095D01*
X311150Y650900D02*
X301600Y650900D01*
X298450Y654050D01*
X302177Y679956D02*
X304800Y679956D01*
X298450Y676229D02*
X298450Y654050D01*
X298450Y676229D02*
X302177Y679956D01*
X304800Y679956D02*
X308000Y683156D01*
X308000Y694605D01*
X302345Y694605D01*
X298450Y698500D01*
X298450Y704850D01*
X288205Y715095D01*
X279400Y715095D01*
D33*
X186605Y715095D02*
X177800Y715095D01*
X193648Y708052D02*
X193648Y701702D01*
X200745Y694605D02*
X206400Y694605D01*
X193648Y708052D02*
X186605Y715095D01*
X193648Y701702D02*
X200745Y694605D01*
X200000Y650900D02*
X209550Y650900D01*
X206400Y686138D02*
X206400Y694605D01*
X198240Y677978D02*
X198240Y652660D01*
X200000Y650900D01*
X198240Y677978D02*
X206400Y686138D01*
D46*
X85005Y715095D02*
X76200Y715095D01*
X85005Y715095D02*
X88900Y711200D01*
X88900Y704850D01*
X99145Y694605D02*
X104800Y694605D01*
X99145Y694605D02*
X88900Y704850D01*
X104800Y694605D02*
X104800Y683156D01*
X101600Y679956D01*
X98977Y679956D01*
X95250Y676229D01*
X95250Y654050D01*
X98400Y650900D01*
X107950Y650900D01*
X630428Y547275D02*
X641953Y558800D01*
X659384Y558800D01*
X630428Y547275D02*
X630428Y515787D01*
X545098Y495300D02*
X513334Y495300D01*
X545098Y495300D02*
X545599Y494799D01*
D48*
X545599Y494799D03*
X563380Y512580D03*
D46*
X575564Y512580D01*
X586494Y501650D01*
X616291Y501650D01*
X630428Y515787D01*
D45*
X952500Y241700D02*
X977900Y267100D01*
X977900Y387350D01*
X952900Y412350D01*
X952500Y412350D01*
D47*
X850900Y361950D02*
X850900Y349250D01*
X908050Y349250D01*
X921150Y362350D01*
X952500Y362350D01*
D48*
X82550Y120650D03*
D45*
X82550Y139700D01*
X224536Y138938D02*
X224536Y122936D01*
X222250Y120650D01*
D48*
X222250Y120650D03*
D45*
X173482Y138938D02*
X173482Y78232D01*
X158750Y63500D02*
X146050Y63500D01*
X143650Y63500D01*
X158750Y63500D02*
X173482Y78232D01*
X143650Y63500D02*
X115250Y63500D01*
X254243Y146050D02*
X284480Y146050D01*
D47*
X298450Y177800D02*
X298450Y183400D01*
D45*
X284480Y163830D02*
X284480Y146050D01*
X284480Y163830D02*
X298450Y177800D01*
X207518Y138938D02*
X207518Y101600D01*
X207518Y65532D01*
X209550Y63500D01*
X224650Y63500D01*
X254243Y133593D02*
X254243Y146050D01*
X254243Y133593D02*
X222250Y101600D01*
X207518Y101600D01*
D46*
X393700Y22860D02*
X404876Y34036D01*
X524510Y53340D02*
X524510Y67310D01*
X527050Y69850D01*
X535280Y69850D01*
X548640Y83210D01*
X574040Y83210D02*
X599440Y83210D01*
X574040Y83210D02*
X548640Y83210D01*
X524510Y53340D02*
X524510Y41910D01*
X516636Y34036D01*
X404876Y34036D01*
X472440Y83210D02*
X497840Y83210D01*
X523240Y83210D01*
X523240Y72390D01*
X518010Y67160D02*
X518010Y53340D01*
X518010Y67160D02*
X523240Y72390D01*
X383032Y37592D02*
X368300Y22860D01*
X383032Y37592D02*
X402575Y37592D01*
X403083Y38100D01*
X518010Y41157D02*
X518010Y53340D01*
X518010Y41157D02*
X514953Y38100D01*
X403083Y38100D01*
D48*
X508000Y27559D03*
D46*
X510413Y29972D02*
X518319Y29972D01*
X510413Y29972D02*
X508000Y27559D01*
X518319Y29972D02*
X531010Y42663D01*
X531010Y53340D01*
D45*
X508000Y63500D02*
X438150Y63500D01*
D47*
X511510Y59990D02*
X511510Y53340D01*
X511510Y59990D02*
X508000Y63500D01*
D45*
X401320Y57150D02*
X401320Y44958D01*
X401320Y57150D02*
X431800Y57150D01*
X438150Y63500D01*
X363728Y43688D02*
X342900Y22860D01*
X400050Y43688D02*
X401320Y44958D01*
X400050Y43688D02*
X363728Y43688D01*
D48*
X497840Y336550D03*
D46*
X494600Y333040D02*
X494600Y320137D01*
X494600Y333040D02*
X495427Y333867D01*
X495427Y334137D01*
X497840Y336550D01*
D48*
X514350Y133604D03*
D46*
X516763Y131191D01*
X566951Y102210D02*
X574040Y102210D01*
X537970Y131191D02*
X516763Y131191D01*
X537970Y131191D02*
X566951Y102210D01*
X497840Y102210D02*
X497840Y118110D01*
X495300Y120650D01*
D48*
X495300Y120650D03*
X467360Y336550D03*
D46*
X470600Y333040D02*
X470600Y320137D01*
X470600Y333040D02*
X469773Y333867D01*
X469773Y334137D01*
X467360Y336550D01*
X425450Y254000D02*
X406400Y254000D01*
X425450Y254000D02*
X431800Y247650D01*
X425450Y215900D02*
X406400Y215900D01*
X425450Y215900D02*
X431800Y222250D01*
D45*
X699250Y483350D02*
X850900Y483350D01*
X699250Y483350D02*
X679450Y463550D01*
D47*
X866140Y403110D02*
X866140Y361950D01*
X866140Y403110D02*
X850900Y418350D01*
X707800Y399782D02*
X707800Y396842D01*
X707800Y399782D02*
X697613Y409969D01*
X697613Y434063D02*
X708050Y444500D01*
X697613Y434063D02*
X697613Y409969D01*
D46*
X714300Y403773D02*
X714300Y396842D01*
D47*
X714300Y403773D02*
X714300Y412850D01*
X708050Y419100D01*
X882650Y279400D02*
X933450Y279400D01*
X939400Y279400D01*
X940200Y279400D02*
X952500Y291700D01*
X940200Y279400D02*
X939400Y279400D01*
X751237Y325896D02*
X744996Y332137D01*
X744996Y334762D01*
X727300Y352458D01*
X755971Y325896D02*
X785054Y296813D01*
X755971Y325896D02*
X751237Y325896D01*
X880477Y296813D02*
X882650Y294640D01*
X880477Y296813D02*
X785054Y296813D01*
X710669Y363515D02*
X707800Y360646D01*
X707800Y352458D01*
X751237Y351296D02*
X760063Y351296D01*
X751237Y351296D02*
X739018Y363515D01*
X760063Y351296D02*
X770717Y361950D01*
X835660Y361950D01*
X739018Y363515D02*
X710669Y363515D01*
D46*
X627625Y439300D02*
X617596Y439300D01*
X627625Y439300D02*
X635000Y446675D01*
M02*
