G04 EAGLE Gerber RS-274X export*
G75*
%MOMM*%
%FSLAX34Y34*%
%LPD*%
%INSolderpaste Top*%
%IPPOS*%
%AMOC8*
5,1,8,0,0,1.08239X$1,22.5*%
G01*
%ADD10R,1.300000X1.500000*%
%ADD11R,1.500000X1.300000*%
%ADD12R,2.032000X0.660400*%
%ADD13R,1.930400X5.334000*%
%ADD14R,0.547100X1.599800*%
%ADD15R,1.599800X0.547100*%
%ADD16R,2.108200X1.397000*%
%ADD17R,1.270000X2.540000*%
%ADD18R,2.000000X2.000000*%
%ADD19R,1.168400X1.600200*%
%ADD20R,2.500000X3.500000*%
%ADD21R,1.600000X3.200000*%
%ADD22R,10.800000X10.410000*%
%ADD23R,1.066800X2.159000*%
%ADD24R,1.000000X1.500000*%
%ADD25R,0.609200X1.180100*%
%ADD26C,0.264000*%
%ADD27R,1.600000X1.600000*%
%ADD28R,0.400000X1.500000*%
%ADD29R,0.400000X1.550000*%
%ADD30R,1.750000X2.400000*%
%ADD31R,1.600200X1.168400*%
%ADD32R,0.400000X1.424000*%


D10*
X536600Y565150D03*
X555600Y565150D03*
D11*
X685800Y581000D03*
X685800Y562000D03*
D12*
X451866Y584200D03*
X513334Y584200D03*
X451866Y571500D03*
X451866Y558800D03*
X513334Y571500D03*
X513334Y558800D03*
X451866Y546100D03*
X513334Y546100D03*
X451866Y533400D03*
X513334Y533400D03*
X451866Y520700D03*
X451866Y508000D03*
X513334Y520700D03*
X513334Y508000D03*
X451866Y495300D03*
X513334Y495300D03*
X597916Y584200D03*
X659384Y584200D03*
X597916Y571500D03*
X597916Y558800D03*
X659384Y571500D03*
X659384Y558800D03*
X597916Y546100D03*
X659384Y546100D03*
X597916Y533400D03*
X659384Y533400D03*
X597916Y520700D03*
X597916Y508000D03*
X659384Y520700D03*
X659384Y508000D03*
X597916Y495300D03*
X659384Y495300D03*
D13*
X609600Y269240D03*
X609600Y365760D03*
D11*
X654050Y301600D03*
X654050Y282600D03*
X654050Y333400D03*
X654050Y352400D03*
D14*
X454600Y320137D03*
X462600Y320137D03*
X470600Y320137D03*
X478600Y320137D03*
X486600Y320137D03*
X494600Y320137D03*
X502600Y320137D03*
X510600Y320137D03*
D15*
X524413Y333950D03*
X524413Y341950D03*
X524413Y349950D03*
X524413Y357950D03*
X524413Y365950D03*
X524413Y373950D03*
X524413Y381950D03*
X524413Y389950D03*
D14*
X510600Y403763D03*
X502600Y403763D03*
X494600Y403763D03*
X486600Y403763D03*
X478600Y403763D03*
X470600Y403763D03*
X462600Y403763D03*
X454600Y403763D03*
D15*
X440787Y389950D03*
X440787Y381950D03*
X440787Y373950D03*
X440787Y365950D03*
X440787Y357950D03*
X440787Y349950D03*
X440787Y341950D03*
X440787Y333950D03*
D11*
X539750Y269850D03*
X539750Y250850D03*
X488950Y250850D03*
X488950Y269850D03*
X514350Y250850D03*
X514350Y269850D03*
X203200Y555600D03*
X203200Y536600D03*
X177800Y555600D03*
X177800Y536600D03*
X152400Y555600D03*
X152400Y536600D03*
X127000Y555600D03*
X127000Y536600D03*
X101600Y555600D03*
X101600Y536600D03*
X76200Y555600D03*
X76200Y536600D03*
X406400Y555600D03*
X406400Y536600D03*
X381000Y555600D03*
X381000Y536600D03*
X355600Y555600D03*
X355600Y536600D03*
X330200Y555600D03*
X330200Y536600D03*
X254000Y555600D03*
X254000Y536600D03*
X228600Y555600D03*
X228600Y536600D03*
X304800Y555600D03*
X304800Y536600D03*
X279400Y555600D03*
X279400Y536600D03*
X82550Y650900D03*
X82550Y669900D03*
X57150Y650900D03*
X57150Y669900D03*
X107950Y650900D03*
X107950Y669900D03*
X133350Y650900D03*
X133350Y669900D03*
X184150Y650900D03*
X184150Y669900D03*
X158750Y650900D03*
X158750Y669900D03*
X209550Y650900D03*
X209550Y669900D03*
X234950Y650900D03*
X234950Y669900D03*
X285750Y650900D03*
X285750Y669900D03*
X260350Y650900D03*
X260350Y669900D03*
X311150Y650900D03*
X311150Y669900D03*
X336550Y650900D03*
X336550Y669900D03*
X387350Y650900D03*
X387350Y669900D03*
X361950Y650900D03*
X361950Y669900D03*
X412750Y650900D03*
X412750Y669900D03*
X438150Y650900D03*
X438150Y669900D03*
X488950Y650900D03*
X488950Y669900D03*
X463550Y650900D03*
X463550Y669900D03*
X514350Y650900D03*
X514350Y669900D03*
X539750Y650900D03*
X539750Y669900D03*
X590550Y650900D03*
X590550Y669900D03*
X565150Y650900D03*
X565150Y669900D03*
X615950Y650900D03*
X615950Y669900D03*
X641350Y650900D03*
X641350Y669900D03*
X692150Y650900D03*
X692150Y669900D03*
X666750Y650900D03*
X666750Y669900D03*
X717550Y650900D03*
X717550Y669900D03*
X742950Y650900D03*
X742950Y669900D03*
X793750Y650900D03*
X793750Y669900D03*
X768350Y650900D03*
X768350Y669900D03*
X819150Y650900D03*
X819150Y669900D03*
X844550Y650900D03*
X844550Y669900D03*
X895350Y650900D03*
X895350Y669900D03*
X869950Y650900D03*
X869950Y669900D03*
X920750Y650900D03*
X920750Y669900D03*
X946150Y650900D03*
X946150Y669900D03*
D16*
X558800Y228600D03*
X467614Y228600D03*
X558800Y183642D03*
X467614Y183642D03*
D10*
X752450Y273050D03*
X733450Y273050D03*
X828700Y514350D03*
X847700Y514350D03*
X790600Y603250D03*
X809600Y603250D03*
X733450Y603250D03*
X752450Y603250D03*
X612750Y463550D03*
X593750Y463550D03*
X498450Y298450D03*
X479450Y298450D03*
D17*
X57150Y139700D03*
X82550Y139700D03*
X107950Y139700D03*
D18*
X115250Y63500D03*
X75250Y63500D03*
D19*
X299720Y146050D03*
X284480Y146050D03*
D20*
X298450Y183400D03*
X298450Y248400D03*
X82550Y183400D03*
X82550Y248400D03*
D21*
X143650Y63500D03*
X224650Y63500D03*
D22*
X190500Y222250D03*
D23*
X156464Y138938D03*
X173482Y138938D03*
X190500Y138938D03*
X207518Y138938D03*
X224536Y138938D03*
D19*
X401320Y57150D03*
X386080Y57150D03*
D11*
X548640Y83210D03*
X548640Y102210D03*
X599440Y102210D03*
X599440Y83210D03*
X574040Y102210D03*
X574040Y83210D03*
X523240Y83210D03*
X523240Y102210D03*
X472440Y102210D03*
X472440Y83210D03*
X497840Y83210D03*
X497840Y102210D03*
X571500Y447700D03*
X571500Y466700D03*
D10*
X727050Y419100D03*
X708050Y419100D03*
X727050Y444500D03*
X708050Y444500D03*
X720700Y330200D03*
X701700Y330200D03*
X720700Y304800D03*
X701700Y304800D03*
D24*
X635000Y467725D03*
X635000Y446675D03*
D20*
X819150Y259600D03*
X819150Y324600D03*
X850900Y483350D03*
X850900Y418350D03*
D25*
X66700Y694605D03*
X85700Y694605D03*
X76200Y715095D03*
X168300Y694605D03*
X187300Y694605D03*
X177800Y715095D03*
X269900Y694605D03*
X288900Y694605D03*
X279400Y715095D03*
X574700Y694605D03*
X593700Y694605D03*
X584200Y715095D03*
X473100Y694605D03*
X492100Y694605D03*
X482600Y715095D03*
X371500Y694605D03*
X390500Y694605D03*
X381000Y715095D03*
X676300Y694605D03*
X695300Y694605D03*
X685800Y715095D03*
X777900Y694605D03*
X796900Y694605D03*
X787400Y715095D03*
X879500Y694605D03*
X898500Y694605D03*
X889000Y715095D03*
X352400Y511895D03*
X333400Y511895D03*
X342900Y491405D03*
X403200Y511895D03*
X384200Y511895D03*
X393700Y491405D03*
X98400Y511895D03*
X79400Y511895D03*
X88900Y491405D03*
X149200Y511895D03*
X130200Y511895D03*
X139700Y491405D03*
X200000Y511895D03*
X181000Y511895D03*
X190500Y491405D03*
X250800Y511895D03*
X231800Y511895D03*
X241300Y491405D03*
X301600Y511895D03*
X282600Y511895D03*
X292100Y491405D03*
X206400Y694605D03*
X225400Y694605D03*
X215900Y715095D03*
X308000Y694605D03*
X327000Y694605D03*
X317500Y715095D03*
X409600Y694605D03*
X428600Y694605D03*
X419100Y715095D03*
X511200Y694605D03*
X530200Y694605D03*
X520700Y715095D03*
X612800Y694605D03*
X631800Y694605D03*
X622300Y715095D03*
X714400Y694605D03*
X733400Y694605D03*
X723900Y715095D03*
X816000Y694605D03*
X835000Y694605D03*
X825500Y715095D03*
X917600Y694605D03*
X936600Y694605D03*
X927100Y715095D03*
D26*
X620576Y424300D02*
X614616Y424300D01*
X614616Y429300D02*
X620576Y429300D01*
X620576Y434300D02*
X614616Y434300D01*
X614616Y439300D02*
X620576Y439300D01*
X610750Y443166D02*
X610750Y449126D01*
X605750Y449126D02*
X605750Y443166D01*
X600750Y443166D02*
X600750Y449126D01*
X595750Y449126D02*
X595750Y443166D01*
X591884Y439300D02*
X585924Y439300D01*
X585924Y434300D02*
X591884Y434300D01*
X591884Y429300D02*
X585924Y429300D01*
X585924Y424300D02*
X591884Y424300D01*
X595750Y420434D02*
X595750Y414474D01*
X600750Y414474D02*
X600750Y420434D01*
X605750Y420434D02*
X605750Y414474D01*
X610750Y414474D02*
X610750Y420434D01*
D27*
X603250Y431800D03*
D25*
X104800Y694605D03*
X123800Y694605D03*
X114300Y715095D03*
D28*
X537510Y53340D03*
X511510Y53340D03*
D29*
X518010Y53340D03*
D28*
X524510Y53340D03*
X531010Y53340D03*
D30*
X476810Y15340D03*
X572210Y15340D03*
D19*
X835660Y361950D03*
X850900Y361950D03*
X866140Y361950D03*
D31*
X882650Y264160D03*
X882650Y279400D03*
X882650Y294640D03*
D32*
X727300Y396842D03*
X720800Y396842D03*
X714300Y396842D03*
X707800Y396842D03*
X707800Y352458D03*
X714300Y352458D03*
X720800Y352458D03*
X727300Y352458D03*
D19*
X655320Y406400D03*
X640080Y406400D03*
M02*
