G04 EAGLE Gerber RS-274X export*
G75*
%MOMM*%
%FSLAX34Y34*%
%LPD*%
%INSoldermask Bottom*%
%IPPOS*%
%AMOC8*
5,1,8,0,0,1.08239X$1,22.5*%
G01*
%ADD10P,1.759533X8X22.500000*%
%ADD11P,1.759533X8X292.500000*%
%ADD12P,1.869504X8X112.500000*%
%ADD13P,1.564054X8X202.500000*%
%ADD14P,2.048207X8X202.500000*%
%ADD15P,1.759533X8X112.500000*%
%ADD16P,2.144431X8X22.500000*%
%ADD17C,3.101600*%


D10*
X88900Y895350D03*
X88900Y920750D03*
X88900Y946150D03*
X88900Y869950D03*
X88900Y844550D03*
X88900Y819150D03*
X88900Y793750D03*
X88900Y768350D03*
D11*
X114300Y419100D03*
X139700Y419100D03*
X165100Y419100D03*
X88900Y419100D03*
X63500Y419100D03*
X38100Y419100D03*
X114300Y336550D03*
X139700Y336550D03*
X165100Y336550D03*
X88900Y336550D03*
X63500Y336550D03*
X38100Y336550D03*
X317500Y419100D03*
X342900Y419100D03*
X368300Y419100D03*
X292100Y419100D03*
X266700Y419100D03*
X241300Y419100D03*
X317500Y336550D03*
X342900Y336550D03*
X368300Y336550D03*
X292100Y336550D03*
X266700Y336550D03*
X241300Y336550D03*
X825500Y565150D03*
X850900Y565150D03*
X876300Y565150D03*
X800100Y565150D03*
X774700Y565150D03*
X749300Y565150D03*
X723900Y565150D03*
D12*
X482600Y444500D03*
X482600Y469900D03*
X457200Y469900D03*
X457200Y444500D03*
X508000Y444500D03*
X508000Y469900D03*
D13*
X755650Y311150D03*
X755650Y336550D03*
X755650Y361950D03*
X755650Y387350D03*
X755650Y412750D03*
X755650Y438150D03*
X755650Y463550D03*
X679450Y463550D03*
X679450Y438150D03*
X679450Y412750D03*
X679450Y387350D03*
X679450Y361950D03*
X679450Y336550D03*
X679450Y311150D03*
D10*
X190500Y895350D03*
X190500Y920750D03*
X190500Y946150D03*
X190500Y869950D03*
X190500Y844550D03*
X190500Y819150D03*
X190500Y793750D03*
X190500Y768350D03*
X292100Y895350D03*
X292100Y920750D03*
X292100Y946150D03*
X292100Y869950D03*
X292100Y844550D03*
X292100Y819150D03*
X292100Y793750D03*
X292100Y768350D03*
X393700Y895350D03*
X393700Y920750D03*
X393700Y946150D03*
X393700Y869950D03*
X393700Y844550D03*
X393700Y819150D03*
X393700Y793750D03*
X393700Y768350D03*
X495300Y895350D03*
X495300Y920750D03*
X495300Y946150D03*
X495300Y869950D03*
X495300Y844550D03*
X495300Y819150D03*
X495300Y793750D03*
X495300Y768350D03*
X596900Y895350D03*
X596900Y920750D03*
X596900Y946150D03*
X596900Y869950D03*
X596900Y844550D03*
X596900Y819150D03*
X596900Y793750D03*
X596900Y768350D03*
X698500Y895350D03*
X698500Y920750D03*
X698500Y946150D03*
X698500Y869950D03*
X698500Y844550D03*
X698500Y819150D03*
X698500Y793750D03*
X698500Y768350D03*
X800100Y895350D03*
X800100Y920750D03*
X800100Y946150D03*
X800100Y869950D03*
X800100Y844550D03*
X800100Y819150D03*
X800100Y793750D03*
X800100Y768350D03*
X901700Y895350D03*
X901700Y920750D03*
X901700Y946150D03*
X901700Y869950D03*
X901700Y844550D03*
X901700Y819150D03*
X901700Y793750D03*
X901700Y768350D03*
D14*
X952500Y362350D03*
X952500Y412350D03*
X952500Y241700D03*
X952500Y291700D03*
D10*
X260350Y101600D03*
X260350Y76200D03*
X260350Y50800D03*
X946150Y38100D03*
X946150Y63500D03*
X863600Y38100D03*
X863600Y63500D03*
X781050Y38100D03*
X781050Y63500D03*
X698500Y38100D03*
X698500Y63500D03*
X946150Y133350D03*
X946150Y158750D03*
X946150Y184150D03*
X863600Y133350D03*
X863600Y158750D03*
X863600Y184150D03*
X781050Y133350D03*
X781050Y158750D03*
X781050Y184150D03*
X698500Y133350D03*
X698500Y158750D03*
X698500Y184150D03*
D15*
X342900Y22860D03*
X368300Y22860D03*
X393700Y22860D03*
X419100Y22860D03*
X444500Y22860D03*
D10*
X977900Y711200D03*
X977900Y685800D03*
X977900Y660400D03*
X977900Y635000D03*
D16*
X431800Y273050D03*
X431800Y247650D03*
X431800Y222250D03*
X431800Y196850D03*
X431800Y171450D03*
X431800Y146050D03*
D17*
X946150Y571500D03*
X330200Y88900D03*
M02*
